#N canvas 0 23 450 300 12;
#X obj 310 112 * 2;
#X floatatom 310 140 5 0 0 0 - - -;
#X obj 234 52 receive duration;
#X floatatom 234 95 5 0 0 0 - - -;
#X obj 252 183 select 0 1;
#X obj 257 227 bng 15 250 50 0 empty empty empty 17 7 0 10 -262144
-1 -1;
#X obj 287 231 bng 15 250 50 0 empty empty empty 17 7 0 10 -262144
-1 -1;
#X floatatom 269 275 5 0 0 0 - - -;
#X obj 269 300 outlet;
#X obj 101 100 cnv 15 80 60 empty empty empty 20 12 0 14 -233017 -66577
0;
#X obj 124 122 tgl 30 0 empty empty 1x_LOOP -17 -10 0 16 -232576 -1
-1 0 1;
#X obj 352 274 send tempo;
#X connect 0 0 1 0;
#X connect 1 0 7 0;
#X connect 2 0 3 0;
#X connect 3 0 0 0;
#X connect 3 0 7 0;
#X connect 4 0 5 0;
#X connect 4 0 3 0;
#X connect 4 1 6 0;
#X connect 4 1 1 0;
#X connect 7 0 8 0;
#X connect 7 0 11 0;
#X connect 10 0 4 0;
