#N canvas 0 23 831 543 12;
#X obj 649 254 writesf~;
#X msg 648 215 stop;
#X obj 524 292 tgl 15 0 empty empty empty 17 7 0 10 -262144 -1 -1 0
1;
#X obj 584 363 readsf~;
#X obj 523 329 bng 15 250 50 0 empty empty empty 17 7 0 10 -262144
-1 -1;
#X msg 652 344 start;
#X msg 741 344 stop;
#X obj 584 399 *~ 0.5;
#X obj 578 498 dac~;
#X obj 357 197 select 1 0;
#X obj 359 133 timer;
#X floatatom 458 150 5 0 0 0 - - -;
#X obj 390 252 metro 1000;
#X obj 474 283 bng 15 250 50 0 empty empty empty 17 7 0 10 -262144
-1 -1;
#X obj 739 236 inlet~;
#X obj 584 436 +~ 0;
#X obj 558 167 outlet;
#X obj 48 140 inlet;
#X obj 105 104 cnv 15 210 290 empty empty empty 20 12 0 14 -233017
-66577 0;
#X obj 131 162 tgl 40 0 empty empty RECORD -10 -12 0 20 -258113 -1
-1 0 1;
#X obj 118 250 vsl 15 128 0 1 0 0 empty empty VOL -6 -12 0 20 -4034
-1 -1 0 1;
#X obj 183 251 vsl 15 128 0 1 0 0 empty empty PITCH -17 -12 0 20 -4034
-1 -1 0 1;
#X obj 267 252 vsl 15 128 0 1 0 0 empty empty REVERB -26 -12 0 20 -4034
-1 -1 0 1;
#X obj 220 170 nbx 4 30 -1e+37 1e+37 0 1 empty empty DURATION 0 -14
0 16 -204800 -1 -1 4645.44 256;
#X obj 416 312 outlet;
#X obj 142 115 bng 15 250 50 0 empty empty empty 17 7 0 10 -258113
-1 -1;
#X msg 482 215 open loop1.wav \, start;
#X msg 587 307 open loop1.wav;
#X text 202 110 loop - layer 1;
#X connect 1 0 0 0;
#X connect 2 0 4 0;
#X connect 2 0 27 0;
#X connect 3 0 7 0;
#X connect 4 0 5 0;
#X connect 5 0 3 0;
#X connect 6 0 3 0;
#X connect 7 0 15 0;
#X connect 9 0 10 0;
#X connect 9 0 26 0;
#X connect 9 1 10 1;
#X connect 9 1 12 0;
#X connect 9 1 1 0;
#X connect 10 0 11 0;
#X connect 11 0 12 1;
#X connect 11 0 16 0;
#X connect 11 0 23 0;
#X connect 12 0 13 0;
#X connect 12 0 25 0;
#X connect 13 0 2 0;
#X connect 13 0 24 0;
#X connect 14 0 0 0;
#X connect 15 0 8 0;
#X connect 15 0 8 1;
#X connect 17 0 19 0;
#X connect 19 0 9 0;
#X connect 20 0 7 1;
#X connect 21 0 15 1;
#X connect 23 0 16 0;
#X connect 25 0 24 0;
#X connect 25 0 2 0;
#X connect 26 0 0 0;
#X connect 27 0 3 0;
#X coords 0 -1 1 1 220 300 2 100 100;
