#N canvas 190 64 1111 630 12;
#X obj 105 105 cnv 30 710 280 empty empty empty 20 12 0 14 -13330 -66577
0;
#X obj 821 -54 key;
#X floatatom 821 -17 5 0 0 0 - - -;
#X obj 821 57 select 0 1;
#X obj 821 19 == 109;
#X obj 20 143 outlet~;
#X obj 955 72 bng 15 250 50 0 empty empty empty 17 7 0 10 -262144 -1
-1;
#X obj 616 162 cnv 15 48 50 empty empty empty 20 12 0 14 -233017 -66577
0;
#X obj 142 232 bass_map;
#X obj 141 143 bass_vol;
#X obj 901 503 bng 30 250 50 0 empty empty empty 4 15 0 20 -262144
-1 -1;
#X obj 902 576 bng 30 250 50 0 empty empty empty 6 15 0 25 -262144
-1 -1;
#X obj 863 503 bng 30 250 50 0 empty empty empty 6 15 0 25 -262144
-1 -1;
#X obj 863 540 bng 30 250 50 0 empty empty empty 4 15 0 20 -262144
-1 -1;
#X obj 901 540 bng 30 250 50 0 empty empty empty 6 15 0 25 -262144
-1 -1;
#X obj 864 576 bng 30 250 50 0 empty empty empty 4 15 0 20 -262144
-1 -1;
#X obj 940 576 bng 30 250 50 0 empty empty empty 6 15 0 25 -262144
-1 -1;
#X obj 939 503 bng 30 250 50 0 empty empty empty 4 15 0 20 -262144
-1 -1;
#X obj 939 540 bng 30 250 50 0 empty empty empty 4 15 0 20 -262144
-1 -1;
#X obj 999 155 key;
#X floatatom 999 192 5 0 0 0 - - -;
#X obj 999 266 select 0 1;
#X obj 993 321 receive stop;
#N canvas 469 366 450 300 kick.wav 0;
#X obj 186 69 inlet;
#X obj 194 109 tgl 15 0 empty empty empty 17 7 0 10 -262144 -1 -1 1
1;
#X obj 258 194 readsf~;
#X obj 190 160 bng 15 250 50 0 empty empty empty 17 7 0 10 -262144
-1 -1;
#X msg 327 169 start;
#X obj 372 106 inlet;
#X msg 384 197 stop;
#X obj 272 233 *~ 0.5;
#X obj 245 305 outlet~;
#X msg 257 134 open kick.wav;
#X connect 0 0 1 0;
#X connect 1 0 9 0;
#X connect 1 0 3 0;
#X connect 2 0 7 0;
#X connect 3 0 4 0;
#X connect 4 0 2 0;
#X connect 5 0 6 0;
#X connect 6 0 2 0;
#X connect 7 0 8 0;
#X connect 9 0 2 0;
#X restore 993 294 pd kick.wav;
#X obj 1000 228 == 49;
#X obj 1208 354 key;
#X floatatom 1208 391 5 0 0 0 - - -;
#X obj 1208 465 select 0 1;
#X obj 1202 520 receive stop;
#X obj 1090 155 key;
#X floatatom 1090 192 5 0 0 0 - - -;
#X obj 1090 266 select 0 1;
#X obj 1089 321 receive stop;
#X obj 1004 547 key;
#X floatatom 1004 584 5 0 0 0 - - -;
#X obj 1004 658 select 0 1;
#X obj 998 713 receive stop;
#X obj 1206 156 key;
#X floatatom 1206 193 5 0 0 0 - - -;
#X obj 1206 267 select 0 1;
#X obj 1200 322 receive stop;
#X obj 1100 548 key;
#X floatatom 1100 585 5 0 0 0 - - -;
#X obj 1100 659 select 0 1;
#X obj 1094 714 receive stop;
#X obj 997 349 key;
#X floatatom 997 386 5 0 0 0 - - -;
#X obj 997 460 select 0 1;
#X obj 991 515 receive stop;
#X obj 1191 548 key;
#X floatatom 1191 585 5 0 0 0 - - -;
#X obj 1191 659 select 0 1;
#X obj 1185 714 receive stop;
#X obj 1101 352 key;
#X floatatom 1101 389 5 0 0 0 - - -;
#X obj 1101 463 select 0 1;
#X obj 1095 518 receive stop;
#X obj 1091 228 == 50;
#X obj 1207 229 == 51;
#X obj 998 422 == 52;
#X obj 1102 425 == 53;
#X obj 1209 427 == 54;
#X obj 1005 620 == 55;
#X obj 1101 621 == 56;
#X obj 1192 621 == 57;
#N canvas 469 366 450 300 rimshot.wav 0;
#X obj 186 69 inlet;
#X obj 194 109 tgl 15 0 empty empty empty 17 7 0 10 -262144 -1 -1 1
1;
#X obj 258 194 readsf~;
#X obj 190 160 bng 15 250 50 0 empty empty empty 17 7 0 10 -262144
-1 -1;
#X msg 327 169 start;
#X obj 372 106 inlet;
#X msg 384 197 stop;
#X obj 272 233 *~ 0.5;
#X obj 245 305 outlet~;
#X msg 257 134 open rimshot.wav;
#X connect 0 0 1 0;
#X connect 1 0 9 0;
#X connect 1 0 3 0;
#X connect 2 0 7 0;
#X connect 3 0 4 0;
#X connect 4 0 2 0;
#X connect 5 0 6 0;
#X connect 6 0 2 0;
#X connect 7 0 8 0;
#X connect 9 0 2 0;
#X restore 1084 294 pd rimshot.wav;
#X obj 717 171 pad_vol;
#N canvas 469 366 450 300 closed.wav 0;
#X obj 186 69 inlet;
#X obj 194 109 tgl 15 0 empty empty empty 17 7 0 10 -262144 -1 -1 1
1;
#X obj 258 194 readsf~;
#X obj 190 160 bng 15 250 50 0 empty empty empty 17 7 0 10 -262144
-1 -1;
#X msg 327 169 start;
#X obj 372 106 inlet;
#X msg 384 197 stop;
#X obj 245 305 outlet~;
#X msg 257 134 open closed.wav;
#X obj 272 233 *~ 0.25;
#X connect 0 0 1 0;
#X connect 1 0 8 0;
#X connect 1 0 3 0;
#X connect 2 0 9 0;
#X connect 3 0 4 0;
#X connect 4 0 2 0;
#X connect 5 0 6 0;
#X connect 6 0 2 0;
#X connect 8 0 2 0;
#X connect 9 0 7 0;
#X restore 1200 295 pd closed.wav;
#N canvas 469 366 450 300 open.wav 0;
#X obj 186 69 inlet;
#X obj 194 109 tgl 15 0 empty empty empty 17 7 0 10 -262144 -1 -1 0
1;
#X obj 258 194 readsf~;
#X obj 190 160 bng 15 250 50 0 empty empty empty 17 7 0 10 -262144
-1 -1;
#X msg 327 169 start;
#X obj 372 106 inlet;
#X msg 384 197 stop;
#X obj 272 233 *~ 0.5;
#X obj 245 305 outlet~;
#X msg 257 134 open open.wav;
#X connect 0 0 1 0;
#X connect 1 0 9 0;
#X connect 1 0 3 0;
#X connect 2 0 7 0;
#X connect 3 0 4 0;
#X connect 4 0 2 0;
#X connect 5 0 6 0;
#X connect 6 0 2 0;
#X connect 7 0 8 0;
#X connect 9 0 2 0;
#X restore 990 488 pd open.wav;
#N canvas 469 366 450 300 cymbal.wav 0;
#X obj 186 69 inlet;
#X obj 194 109 tgl 15 0 empty empty empty 17 7 0 10 -262144 -1 -1 0
1;
#X obj 258 194 readsf~;
#X obj 190 160 bng 15 250 50 0 empty empty empty 17 7 0 10 -262144
-1 -1;
#X msg 327 169 start;
#X obj 372 106 inlet;
#X msg 384 197 stop;
#X obj 272 233 *~ 0.5;
#X obj 245 305 outlet~;
#X msg 257 134 open cymbal.wav;
#X connect 0 0 1 0;
#X connect 1 0 9 0;
#X connect 1 0 3 0;
#X connect 2 0 7 0;
#X connect 3 0 4 0;
#X connect 4 0 2 0;
#X connect 5 0 6 0;
#X connect 6 0 2 0;
#X connect 7 0 8 0;
#X connect 9 0 2 0;
#X restore 1095 491 pd cymbal.wav;
#N canvas 469 366 450 300 clap.wav 0;
#X obj 186 69 inlet;
#X obj 194 109 tgl 15 0 empty empty empty 17 7 0 10 -262144 -1 -1 0
1;
#X obj 258 194 readsf~;
#X obj 190 160 bng 15 250 50 0 empty empty empty 17 7 0 10 -262144
-1 -1;
#X msg 327 169 start;
#X obj 372 106 inlet;
#X msg 384 197 stop;
#X obj 245 305 outlet~;
#X msg 257 134 open clap.wav;
#X obj 272 233 *~ 0.05;
#X connect 0 0 1 0;
#X connect 1 0 8 0;
#X connect 1 0 3 0;
#X connect 2 0 9 0;
#X connect 3 0 4 0;
#X connect 4 0 2 0;
#X connect 5 0 6 0;
#X connect 6 0 2 0;
#X connect 8 0 2 0;
#X connect 9 0 7 0;
#X restore 998 686 pd clap.wav;
#N canvas 469 366 450 300 crash.wav 0;
#X obj 186 69 inlet;
#X obj 194 109 tgl 15 0 empty empty empty 17 7 0 10 -262144 -1 -1 0
1;
#X obj 258 194 readsf~;
#X obj 190 160 bng 15 250 50 0 empty empty empty 17 7 0 10 -262144
-1 -1;
#X msg 327 169 start;
#X obj 372 106 inlet;
#X msg 384 197 stop;
#X obj 272 233 *~ 0.5;
#X obj 245 305 outlet~;
#X msg 257 134 open crash.wav;
#X connect 0 0 1 0;
#X connect 1 0 9 0;
#X connect 1 0 3 0;
#X connect 2 0 7 0;
#X connect 3 0 4 0;
#X connect 4 0 2 0;
#X connect 5 0 6 0;
#X connect 6 0 2 0;
#X connect 7 0 8 0;
#X connect 9 0 2 0;
#X restore 1202 493 pd crash.wav;
#N canvas 469 366 450 300 snare.wav 0;
#X obj 186 69 inlet;
#X obj 194 109 tgl 15 0 empty empty empty 17 7 0 10 -262144 -1 -1 0
1;
#X obj 258 194 readsf~;
#X obj 190 160 bng 15 250 50 0 empty empty empty 17 7 0 10 -262144
-1 -1;
#X msg 327 169 start;
#X obj 372 106 inlet;
#X msg 384 197 stop;
#X obj 272 233 *~ 0.5;
#X obj 245 305 outlet~;
#X msg 257 134 open snare.wav;
#X connect 0 0 1 0;
#X connect 1 0 9 0;
#X connect 1 0 3 0;
#X connect 2 0 7 0;
#X connect 3 0 4 0;
#X connect 4 0 2 0;
#X connect 5 0 6 0;
#X connect 6 0 2 0;
#X connect 7 0 8 0;
#X connect 9 0 2 0;
#X restore 1094 687 pd snare.wav;
#N canvas 469 366 450 300 808a.wav 0;
#X obj 186 69 inlet;
#X obj 194 109 tgl 15 0 empty empty empty 17 7 0 10 -262144 -1 -1 0
1;
#X obj 258 194 readsf~;
#X obj 190 160 bng 15 250 50 0 empty empty empty 17 7 0 10 -262144
-1 -1;
#X msg 327 169 start;
#X obj 372 106 inlet;
#X msg 384 197 stop;
#X obj 272 233 *~ 0.5;
#X obj 245 305 outlet~;
#X msg 257 134 open 808a.wav;
#X connect 0 0 1 0;
#X connect 1 0 9 0;
#X connect 1 0 3 0;
#X connect 2 0 7 0;
#X connect 3 0 4 0;
#X connect 4 0 2 0;
#X connect 5 0 6 0;
#X connect 6 0 2 0;
#X connect 7 0 8 0;
#X connect 9 0 2 0;
#X restore 1185 687 pd 808a.wav;
#X obj 721 454 dac~;
#X obj 660 456 outlet~;
#X obj 700 420 *~ 0.1;
#X obj 580 230 pad_map;
#X obj 111 467 send~ left;
#X obj 495 511 send~ right;
#X obj 31 103 *~ 0.25;
#X obj 625 178 bng 30 250 50 0 empty empty MUTE 0 -8 0 13 -203904 -1
-33289;
#X connect 1 0 2 0;
#X connect 2 0 4 0;
#X connect 3 1 6 0;
#X connect 4 0 3 0;
#X connect 6 0 81 0;
#X connect 9 0 80 0;
#X connect 19 0 20 0;
#X connect 20 0 24 0;
#X connect 21 1 23 0;
#X connect 21 1 12 0;
#X connect 22 0 23 1;
#X connect 24 0 21 0;
#X connect 25 0 26 0;
#X connect 26 0 61 0;
#X connect 27 1 71 0;
#X connect 27 1 18 0;
#X connect 28 0 71 1;
#X connect 29 0 30 0;
#X connect 30 0 57 0;
#X connect 31 1 65 0;
#X connect 31 1 10 0;
#X connect 32 0 65 1;
#X connect 33 0 34 0;
#X connect 34 0 62 0;
#X connect 35 1 70 0;
#X connect 35 1 15 0;
#X connect 36 0 70 1;
#X connect 37 0 38 0;
#X connect 38 0 58 0;
#X connect 39 1 17 0;
#X connect 39 1 67 0;
#X connect 40 0 67 1;
#X connect 41 0 42 0;
#X connect 42 0 63 0;
#X connect 43 1 72 0;
#X connect 43 1 11 0;
#X connect 44 0 72 1;
#X connect 45 0 46 0;
#X connect 46 0 59 0;
#X connect 47 1 68 0;
#X connect 47 1 13 0;
#X connect 48 0 68 1;
#X connect 49 0 50 0;
#X connect 50 0 64 0;
#X connect 51 1 73 0;
#X connect 51 1 16 0;
#X connect 52 0 73 1;
#X connect 53 0 54 0;
#X connect 54 0 60 0;
#X connect 55 1 69 0;
#X connect 55 1 14 0;
#X connect 56 0 69 1;
#X connect 57 0 31 0;
#X connect 58 0 39 0;
#X connect 59 0 47 0;
#X connect 60 0 55 0;
#X connect 61 0 27 0;
#X connect 62 0 35 0;
#X connect 63 0 43 0;
#X connect 64 0 51 0;
#X connect 66 0 76 0;
#X connect 76 0 74 0;
#X connect 76 0 74 1;
#X connect 76 0 75 0;
#X connect 76 0 79 0;
#X connect 80 0 5 0;
#X connect 80 0 78 0;
#X coords 0 -1 1 1 720 290 2 100 100;
