#N canvas 42 113 1119 713 12;
#X obj 66 446 key;
#X floatatom 66 483 5 0 0 0 - - -;
#X obj 66 557 select 0 1;
#X obj 133 406 key;
#X floatatom 133 434 5 0 0 0 - - -;
#X obj 132 491 select 0 1;
#X obj 133 462 == 119;
#X obj 148 554 receive stop;
#X obj 226 488 receive stop;
#X obj 107 111 cnv 30 780 280 empty empty empty 20 12 0 14 -233017
-66577 0;
#X obj 572 -82 key;
#X floatatom 572 -45 5 0 0 0 - - -;
#X obj 572 29 select 0 1;
#X obj 588 65 send stop;
#X obj 144 317 bng 30 250 50 0 empty empty empty 6 15 0 25 -262144
-1 -1;
#X obj 169 279 bng 30 250 50 0 empty empty empty 4 15 0 20 -262144
-1 -1;
#X obj 141 629 key;
#X floatatom 141 666 5 0 0 0 - - -;
#X obj 141 740 select 0 1;
#X obj 208 589 key;
#X floatatom 208 617 5 0 0 0 - - -;
#X obj 207 674 select 0 1;
#X obj 223 737 receive stop;
#X obj 301 671 receive stop;
#X obj 199 317 bng 30 250 50 0 empty empty empty 6 15 0 25 -262144
-1 -1;
#X obj 224 279 bng 30 250 50 0 empty empty empty 4 15 0 20 -262144
-1 -1;
#X obj 343 438 key;
#X floatatom 343 475 5 0 0 0 - - -;
#X obj 343 549 select 0 1;
#X obj 410 398 key;
#X floatatom 410 426 5 0 0 0 - - -;
#X obj 409 483 select 0 1;
#X obj 425 546 receive stop;
#X obj 503 480 receive stop;
#X obj 251 316 bng 30 250 50 0 empty empty empty 6 15 0 25 -262144
-1 -1;
#X obj 302 318 bng 30 250 50 0 empty empty empty 4 15 0 20 -262144
-1 -1;
#X obj 418 621 key;
#X floatatom 418 658 5 0 0 0 - - -;
#X obj 418 732 select 0 1;
#X obj 485 581 key;
#X floatatom 485 609 5 0 0 0 - - -;
#X obj 484 666 select 0 1;
#X obj 500 729 receive stop;
#X obj 578 663 receive stop;
#X obj 331 277 bng 30 250 50 0 empty empty empty 6 15 0 25 -262144
-1 -1;
#X obj 357 318 bng 30 250 50 0 empty empty empty 4 15 0 20 -262144
-1 -1;
#X obj 620 446 key;
#X floatatom 620 483 5 0 0 0 - - -;
#X obj 620 557 select 0 1;
#X obj 687 406 key;
#X floatatom 687 434 5 0 0 0 - - -;
#X obj 686 491 select 0 1;
#X obj 702 554 receive stop;
#X obj 780 488 receive stop;
#X obj 410 317 bng 30 250 50 0 empty empty empty 6 15 0 25 -262144
-1 -1;
#X obj 388 278 bng 30 250 50 0 empty empty empty 4 15 0 20 -262144
-1 -1;
#X obj 695 629 key;
#X floatatom 695 666 5 0 0 0 - - -;
#X obj 695 740 select 0 1;
#X obj 762 589 key;
#X floatatom 762 617 5 0 0 0 - - -;
#X obj 761 674 select 0 1;
#X obj 777 737 receive stop;
#X obj 855 671 receive stop;
#X obj 462 317 bng 30 250 50 0 empty empty empty 6 15 0 25 -262144
-1 -1;
#X obj 442 278 bng 30 250 50 0 empty empty empty 4 15 0 20 -262144
-1 -1;
#X obj 879 502 key;
#X floatatom 879 526 5 0 0 0 - - -;
#X obj 879 600 select 0 1;
#X obj 973 594 receive stop;
#X obj 511 318 bng 30 250 50 0 empty empty empty 6 15 0 25 -262144
-1 -1;
#X obj 707 200 bng 30 250 50 0 empty empty empty 4 15 0 20 -262144
-1 -1;
#X obj 708 273 bng 30 250 50 0 empty empty empty 6 15 0 25 -262144
-1 -1;
#X obj 669 200 bng 30 250 50 0 empty empty empty 6 15 0 25 -262144
-1 -1;
#X obj 669 237 bng 30 250 50 0 empty empty empty 4 15 0 20 -262144
-1 -1;
#X obj 707 237 bng 30 250 50 0 empty empty empty 6 15 0 25 -262144
-1 -1;
#X obj 670 273 bng 30 250 50 0 empty empty empty 4 15 0 20 -262144
-1 -1;
#X obj 746 273 bng 30 250 50 0 empty empty empty 6 15 0 25 -262144
-1 -1;
#X obj 745 200 bng 30 250 50 0 empty empty empty 4 15 0 20 -262144
-1 -1;
#X obj 745 237 bng 30 250 50 0 empty empty empty 4 15 0 20 -262144
-1 -1;
#X obj 141 702 == 115;
#X obj 66 519 == 97;
#X obj 208 645 == 101;
#X obj 343 511 == 100;
#X obj 410 454 == 102;
#X obj 418 694 == 116;
#X obj 485 637 == 103;
#X obj 687 462 == 121;
#X obj 620 519 == 104;
#X obj 762 645 == 117;
#X obj 695 702 == 106;
#X obj 880 562 == 107;
#X obj 443 172 tgl 30 1 empty empty MUTE -3 -10 0 16 -262144 -1 -1
0 1;
#X obj 429 35 receive stop;
#X obj 572 -9 == 109;
#X obj 147 156 piano_vol;
#X obj 32 216 outlet~;
#X obj 50 266 dac~;
#N canvas 608 505 450 300 bass_lo_C.wav 0;
#X obj 186 69 inlet;
#X obj 194 109 tgl 15 0 empty empty empty 17 7 0 10 -262144 -1 -1 1
1;
#X obj 258 194 readsf~;
#X obj 190 160 bng 15 250 50 0 empty empty empty 17 7 0 10 -262144
-1 -1;
#X msg 327 169 start;
#X obj 372 106 inlet;
#X msg 384 197 stop;
#X obj 272 233 *~ 0.5;
#X obj 245 305 outlet~;
#X msg 257 134 open bass_c.wav;
#X connect 0 0 1 0;
#X connect 1 0 9 0;
#X connect 1 0 3 0;
#X connect 2 0 7 0;
#X connect 3 0 4 0;
#X connect 4 0 2 0;
#X connect 5 0 6 0;
#X connect 6 0 2 0;
#X connect 7 0 8 0;
#X connect 9 0 2 0;
#X restore 60 585 pd bass_lo_C.wav;
#N canvas 594 438 450 300 bass_lo_C+.wav 0;
#X obj 186 69 inlet;
#X obj 194 109 tgl 15 0 empty empty empty 17 7 0 10 -262144 -1 -1 0
1;
#X obj 258 194 readsf~;
#X obj 190 160 bng 15 250 50 0 empty empty empty 17 7 0 10 -262144
-1 -1;
#X msg 327 169 start;
#X obj 372 106 inlet;
#X msg 384 197 stop;
#X obj 272 233 *~ 0.5;
#X obj 245 305 outlet~;
#X msg 257 134 open bass_c+.wav;
#X connect 0 0 1 0;
#X connect 1 0 9 0;
#X connect 1 0 3 0;
#X connect 2 0 7 0;
#X connect 3 0 4 0;
#X connect 4 0 2 0;
#X connect 5 0 6 0;
#X connect 6 0 2 0;
#X connect 7 0 8 0;
#X connect 9 0 2 0;
#X restore 151 518 pd bass_lo_C+.wav;
#N canvas 469 366 450 300 bass_lo_D.wav 0;
#X obj 186 69 inlet;
#X obj 194 109 tgl 15 0 empty empty empty 17 7 0 10 -262144 -1 -1 1
1;
#X obj 258 194 readsf~;
#X obj 190 160 bng 15 250 50 0 empty empty empty 17 7 0 10 -262144
-1 -1;
#X msg 327 169 start;
#X obj 372 106 inlet;
#X msg 384 197 stop;
#X obj 272 233 *~ 0.5;
#X obj 271 271 outlet~;
#X msg 257 134 open bass_d.wav;
#X connect 0 0 1 0;
#X connect 1 0 9 0;
#X connect 1 0 3 0;
#X connect 2 0 7 0;
#X connect 3 0 4 0;
#X connect 4 0 2 0;
#X connect 5 0 6 0;
#X connect 6 0 2 0;
#X connect 7 0 8 0;
#X connect 9 0 2 0;
#X restore 135 768 pd bass_lo_D.wav;
#N canvas 594 438 450 300 bass_lo_D+.wav 0;
#X obj 186 69 inlet;
#X obj 194 109 tgl 15 0 empty empty empty 17 7 0 10 -262144 -1 -1 1
1;
#X obj 258 194 readsf~;
#X obj 190 160 bng 15 250 50 0 empty empty empty 17 7 0 10 -262144
-1 -1;
#X msg 327 169 start;
#X obj 372 106 inlet;
#X msg 384 197 stop;
#X obj 272 233 *~ 0.5;
#X obj 245 305 outlet~;
#X msg 257 134 open bass_d+.wav;
#X connect 0 0 1 0;
#X connect 1 0 9 0;
#X connect 1 0 3 0;
#X connect 2 0 7 0;
#X connect 3 0 4 0;
#X connect 4 0 2 0;
#X connect 5 0 6 0;
#X connect 6 0 2 0;
#X connect 7 0 8 0;
#X connect 9 0 2 0;
#X restore 226 701 pd bass_lo_D+.wav;
#N canvas 469 366 450 300 bass_lo_E.wav 0;
#X obj 186 69 inlet;
#X obj 194 109 tgl 15 0 empty empty empty 17 7 0 10 -262144 -1 -1 0
1;
#X obj 258 194 readsf~;
#X obj 190 160 bng 15 250 50 0 empty empty empty 17 7 0 10 -262144
-1 -1;
#X msg 327 169 start;
#X obj 372 106 inlet;
#X msg 384 197 stop;
#X obj 272 233 *~ 0.5;
#X obj 245 305 outlet~;
#X msg 257 134 open bass_e.wav;
#X connect 0 0 1 0;
#X connect 1 0 9 0;
#X connect 1 0 3 0;
#X connect 2 0 7 0;
#X connect 3 0 4 0;
#X connect 4 0 2 0;
#X connect 5 0 6 0;
#X connect 6 0 2 0;
#X connect 7 0 8 0;
#X connect 9 0 2 0;
#X restore 337 577 pd bass_lo_E.wav;
#N canvas 594 438 450 300 bass_lo_F.wav 0;
#X obj 186 69 inlet;
#X obj 194 109 tgl 15 0 empty empty empty 17 7 0 10 -262144 -1 -1 1
1;
#X obj 258 194 readsf~;
#X obj 190 160 bng 15 250 50 0 empty empty empty 17 7 0 10 -262144
-1 -1;
#X msg 327 169 start;
#X obj 372 106 inlet;
#X msg 384 197 stop;
#X obj 272 233 *~ 0.5;
#X obj 245 305 outlet~;
#X msg 257 134 open bass_f.wav;
#X connect 0 0 1 0;
#X connect 1 0 9 0;
#X connect 1 0 3 0;
#X connect 2 0 7 0;
#X connect 3 0 4 0;
#X connect 4 0 2 0;
#X connect 5 0 6 0;
#X connect 6 0 2 0;
#X connect 7 0 8 0;
#X connect 9 0 2 0;
#X restore 428 511 pd bass_lo_F.wav;
#N canvas 469 366 450 300 bass_lo_F+.wav 0;
#X obj 186 69 inlet;
#X obj 194 109 tgl 15 0 empty empty empty 17 7 0 10 -262144 -1 -1 0
1;
#X obj 258 194 readsf~;
#X obj 190 160 bng 15 250 50 0 empty empty empty 17 7 0 10 -262144
-1 -1;
#X msg 327 169 start;
#X obj 372 106 inlet;
#X msg 384 197 stop;
#X obj 272 233 *~ 0.5;
#X obj 245 305 outlet~;
#X msg 257 134 open bass_f+.wav;
#X connect 0 0 1 0;
#X connect 1 0 9 0;
#X connect 1 0 3 0;
#X connect 2 0 7 0;
#X connect 3 0 4 0;
#X connect 4 0 2 0;
#X connect 5 0 6 0;
#X connect 6 0 2 0;
#X connect 7 0 8 0;
#X connect 9 0 2 0;
#X restore 412 760 pd bass_lo_F+.wav;
#N canvas 594 438 450 300 bass_lo_G.wav 0;
#X obj 186 69 inlet;
#X obj 194 109 tgl 15 0 empty empty empty 17 7 0 10 -262144 -1 -1 0
1;
#X obj 258 194 readsf~;
#X obj 190 160 bng 15 250 50 0 empty empty empty 17 7 0 10 -262144
-1 -1;
#X msg 327 169 start;
#X obj 372 106 inlet;
#X msg 384 197 stop;
#X obj 272 233 *~ 0.5;
#X obj 245 305 outlet~;
#X msg 257 134 open bass_g.wav;
#X connect 0 0 1 0;
#X connect 1 0 9 0;
#X connect 1 0 3 0;
#X connect 2 0 7 0;
#X connect 3 0 4 0;
#X connect 4 0 2 0;
#X connect 5 0 6 0;
#X connect 6 0 2 0;
#X connect 7 0 8 0;
#X connect 9 0 2 0;
#X restore 503 694 pd bass_lo_G.wav;
#N canvas 594 438 450 300 bass_lo_G+.wav 0;
#X obj 186 69 inlet;
#X obj 194 109 tgl 15 0 empty empty empty 17 7 0 10 -262144 -1 -1 0
1;
#X obj 258 194 readsf~;
#X obj 190 160 bng 15 250 50 0 empty empty empty 17 7 0 10 -262144
-1 -1;
#X msg 327 169 start;
#X obj 372 106 inlet;
#X msg 384 197 stop;
#X obj 272 233 *~ 0.5;
#X obj 245 305 outlet~;
#X msg 257 134 open bass_g+.wav;
#X connect 0 0 1 0;
#X connect 1 0 9 0;
#X connect 1 0 3 0;
#X connect 2 0 7 0;
#X connect 3 0 4 0;
#X connect 4 0 2 0;
#X connect 5 0 6 0;
#X connect 6 0 2 0;
#X connect 7 0 8 0;
#X connect 9 0 2 0;
#X restore 705 518 pd bass_lo_G+.wav;
#N canvas 733 364 450 300 bass_lo_A.wav 0;
#X obj 186 69 inlet;
#X obj 194 109 tgl 15 0 empty empty empty 17 7 0 10 -262144 -1 -1 0
1;
#X obj 258 194 readsf~;
#X obj 190 160 bng 15 250 50 0 empty empty empty 17 7 0 10 -262144
-1 -1;
#X msg 327 169 start;
#X obj 372 106 inlet;
#X msg 384 197 stop;
#X obj 272 233 *~ 0.5;
#X obj 245 305 outlet~;
#X msg 257 134 open bass_a.wav;
#X connect 0 0 1 0;
#X connect 1 0 9 0;
#X connect 1 0 3 0;
#X connect 2 0 7 0;
#X connect 3 0 4 0;
#X connect 4 0 2 0;
#X connect 5 0 6 0;
#X connect 6 0 2 0;
#X connect 7 0 8 0;
#X connect 9 0 2 0;
#X restore 614 585 pd bass_lo_A.wav;
#N canvas 594 438 450 300 bass_lo_A+.wav 0;
#X obj 186 69 inlet;
#X obj 194 109 tgl 15 0 empty empty empty 17 7 0 10 -262144 -1 -1 1
1;
#X obj 258 194 readsf~;
#X obj 190 160 bng 15 250 50 0 empty empty empty 17 7 0 10 -262144
-1 -1;
#X msg 327 169 start;
#X obj 372 106 inlet;
#X msg 384 197 stop;
#X obj 272 233 *~ 0.5;
#X obj 245 305 outlet~;
#X msg 257 134 open bass_a+.wav;
#X connect 0 0 1 0;
#X connect 1 0 9 0;
#X connect 1 0 3 0;
#X connect 2 0 7 0;
#X connect 3 0 4 0;
#X connect 4 0 2 0;
#X connect 5 0 6 0;
#X connect 6 0 2 0;
#X connect 7 0 8 0;
#X connect 9 0 2 0;
#X restore 780 701 pd bass_lo_A+.wav;
#N canvas 469 366 450 300 bass_lo_B.wav 0;
#X obj 186 69 inlet;
#X obj 194 109 tgl 15 0 empty empty empty 17 7 0 10 -262144 -1 -1 0
1;
#X obj 258 194 readsf~;
#X obj 190 160 bng 15 250 50 0 empty empty empty 17 7 0 10 -262144
-1 -1;
#X msg 327 169 start;
#X obj 372 106 inlet;
#X msg 384 197 stop;
#X obj 272 233 *~ 0.5;
#X obj 245 305 outlet~;
#X msg 257 134 open bass_b.wav;
#X connect 0 0 1 0;
#X connect 1 0 9 0;
#X connect 1 0 3 0;
#X connect 2 0 7 0;
#X connect 3 0 4 0;
#X connect 4 0 2 0;
#X connect 5 0 6 0;
#X connect 6 0 2 0;
#X connect 7 0 8 0;
#X connect 9 0 2 0;
#X restore 689 768 pd bass_lo_B.wav;
#N canvas 469 366 450 300 bass_mi_C.wav 0;
#X obj 186 69 inlet;
#X obj 194 109 tgl 15 0 empty empty empty 17 7 0 10 -262144 -1 -1 1
1;
#X obj 258 194 readsf~;
#X obj 190 160 bng 15 250 50 0 empty empty empty 17 7 0 10 -262144
-1 -1;
#X msg 327 169 start;
#X obj 372 106 inlet;
#X msg 384 197 stop;
#X obj 272 233 *~ 0.5;
#X obj 245 305 outlet~;
#X msg 257 134 open bass_hiC.wav;
#X connect 0 0 1 0;
#X connect 1 0 9 0;
#X connect 1 0 3 0;
#X connect 2 0 7 0;
#X connect 3 0 4 0;
#X connect 4 0 2 0;
#X connect 5 0 6 0;
#X connect 6 0 2 0;
#X connect 7 0 8 0;
#X connect 9 0 2 0;
#X restore 873 628 pd bass_mi_C.wav;
#X obj 945 -204 key;
#X floatatom 945 -167 5 0 0 0 - - -;
#X obj 945 -93 select 0 1;
#X obj 939 -38 receive stop;
#N canvas 469 366 450 300 kick.wav 0;
#X obj 186 69 inlet;
#X obj 194 109 tgl 15 0 empty empty empty 17 7 0 10 -262144 -1 -1 1
1;
#X obj 258 194 readsf~;
#X obj 190 160 bng 15 250 50 0 empty empty empty 17 7 0 10 -262144
-1 -1;
#X msg 327 169 start;
#X obj 372 106 inlet;
#X msg 384 197 stop;
#X obj 272 233 *~ 0.5;
#X obj 245 305 outlet~;
#X msg 257 134 open kick.wav;
#X connect 0 0 1 0;
#X connect 1 0 9 0;
#X connect 1 0 3 0;
#X connect 2 0 7 0;
#X connect 3 0 4 0;
#X connect 4 0 2 0;
#X connect 5 0 6 0;
#X connect 6 0 2 0;
#X connect 7 0 8 0;
#X connect 9 0 2 0;
#X restore 939 -65 pd kick.wav;
#X obj 946 -131 == 49;
#X obj 1154 -5 key;
#X floatatom 1154 32 5 0 0 0 - - -;
#X obj 1154 106 select 0 1;
#X obj 1148 161 receive stop;
#X obj 1036 -204 key;
#X floatatom 1036 -167 5 0 0 0 - - -;
#X obj 1036 -93 select 0 1;
#X obj 1035 -38 receive stop;
#X obj 950 188 key;
#X floatatom 950 225 5 0 0 0 - - -;
#X obj 950 299 select 0 1;
#X obj 944 354 receive stop;
#X obj 1152 -203 key;
#X floatatom 1152 -166 5 0 0 0 - - -;
#X obj 1152 -92 select 0 1;
#X obj 1146 -37 receive stop;
#X obj 1046 189 key;
#X floatatom 1046 226 5 0 0 0 - - -;
#X obj 1046 300 select 0 1;
#X obj 1040 355 receive stop;
#X obj 943 -10 key;
#X floatatom 943 27 5 0 0 0 - - -;
#X obj 943 101 select 0 1;
#X obj 937 156 receive stop;
#X obj 1137 189 key;
#X floatatom 1137 226 5 0 0 0 - - -;
#X obj 1137 300 select 0 1;
#X obj 1131 355 receive stop;
#X obj 1047 -7 key;
#X floatatom 1047 30 5 0 0 0 - - -;
#X obj 1047 104 select 0 1;
#X obj 1041 159 receive stop;
#X obj 1037 -131 == 50;
#X obj 1153 -130 == 51;
#X obj 944 63 == 52;
#X obj 1048 66 == 53;
#X obj 1155 68 == 54;
#X obj 951 261 == 55;
#X obj 1047 262 == 56;
#X obj 1138 262 == 57;
#N canvas 469 366 450 300 rimshot.wav 0;
#X obj 186 69 inlet;
#X obj 194 109 tgl 15 0 empty empty empty 17 7 0 10 -262144 -1 -1 1
1;
#X obj 258 194 readsf~;
#X obj 190 160 bng 15 250 50 0 empty empty empty 17 7 0 10 -262144
-1 -1;
#X msg 327 169 start;
#X obj 372 106 inlet;
#X msg 384 197 stop;
#X obj 272 233 *~ 0.5;
#X obj 245 305 outlet~;
#X msg 257 134 open rimshot.wav;
#X connect 0 0 1 0;
#X connect 1 0 9 0;
#X connect 1 0 3 0;
#X connect 2 0 7 0;
#X connect 3 0 4 0;
#X connect 4 0 2 0;
#X connect 5 0 6 0;
#X connect 6 0 2 0;
#X connect 7 0 8 0;
#X connect 9 0 2 0;
#X restore 1030 -65 pd rimshot.wav;
#X obj 791 137 pad_vol;
#N canvas 469 366 450 300 closed.wav 0;
#X obj 186 69 inlet;
#X obj 194 109 tgl 15 0 empty empty empty 17 7 0 10 -262144 -1 -1 0
1;
#X obj 258 194 readsf~;
#X obj 190 160 bng 15 250 50 0 empty empty empty 17 7 0 10 -262144
-1 -1;
#X msg 327 169 start;
#X obj 372 106 inlet;
#X msg 384 197 stop;
#X obj 245 305 outlet~;
#X msg 257 134 open closed.wav;
#X obj 272 233 *~ 0.25;
#X connect 0 0 1 0;
#X connect 1 0 8 0;
#X connect 1 0 3 0;
#X connect 2 0 9 0;
#X connect 3 0 4 0;
#X connect 4 0 2 0;
#X connect 5 0 6 0;
#X connect 6 0 2 0;
#X connect 8 0 2 0;
#X connect 9 0 7 0;
#X restore 1146 -64 pd closed.wav;
#N canvas 469 366 450 300 open.wav 0;
#X obj 186 69 inlet;
#X obj 194 109 tgl 15 0 empty empty empty 17 7 0 10 -262144 -1 -1 0
1;
#X obj 258 194 readsf~;
#X obj 190 160 bng 15 250 50 0 empty empty empty 17 7 0 10 -262144
-1 -1;
#X msg 327 169 start;
#X obj 372 106 inlet;
#X msg 384 197 stop;
#X obj 272 233 *~ 0.5;
#X obj 245 305 outlet~;
#X msg 257 134 open open.wav;
#X connect 0 0 1 0;
#X connect 1 0 9 0;
#X connect 1 0 3 0;
#X connect 2 0 7 0;
#X connect 3 0 4 0;
#X connect 4 0 2 0;
#X connect 5 0 6 0;
#X connect 6 0 2 0;
#X connect 7 0 8 0;
#X connect 9 0 2 0;
#X restore 936 129 pd open.wav;
#N canvas 469 366 450 300 cymbal.wav 0;
#X obj 186 69 inlet;
#X obj 194 109 tgl 15 0 empty empty empty 17 7 0 10 -262144 -1 -1 1
1;
#X obj 258 194 readsf~;
#X obj 190 160 bng 15 250 50 0 empty empty empty 17 7 0 10 -262144
-1 -1;
#X msg 327 169 start;
#X obj 372 106 inlet;
#X msg 384 197 stop;
#X obj 272 233 *~ 0.5;
#X obj 245 305 outlet~;
#X msg 257 134 open cymbal.wav;
#X connect 0 0 1 0;
#X connect 1 0 9 0;
#X connect 1 0 3 0;
#X connect 2 0 7 0;
#X connect 3 0 4 0;
#X connect 4 0 2 0;
#X connect 5 0 6 0;
#X connect 6 0 2 0;
#X connect 7 0 8 0;
#X connect 9 0 2 0;
#X restore 1041 132 pd cymbal.wav;
#N canvas 469 366 450 300 clap.wav 0;
#X obj 186 69 inlet;
#X obj 194 109 tgl 15 0 empty empty empty 17 7 0 10 -262144 -1 -1 0
1;
#X obj 258 194 readsf~;
#X obj 190 160 bng 15 250 50 0 empty empty empty 17 7 0 10 -262144
-1 -1;
#X msg 327 169 start;
#X obj 372 106 inlet;
#X msg 384 197 stop;
#X obj 245 305 outlet~;
#X msg 257 134 open clap.wav;
#X obj 272 233 *~ 0.05;
#X connect 0 0 1 0;
#X connect 1 0 8 0;
#X connect 1 0 3 0;
#X connect 2 0 9 0;
#X connect 3 0 4 0;
#X connect 4 0 2 0;
#X connect 5 0 6 0;
#X connect 6 0 2 0;
#X connect 8 0 2 0;
#X connect 9 0 7 0;
#X restore 944 327 pd clap.wav;
#N canvas 469 366 450 300 crash.wav 0;
#X obj 186 69 inlet;
#X obj 194 109 tgl 15 0 empty empty empty 17 7 0 10 -262144 -1 -1 0
1;
#X obj 258 194 readsf~;
#X obj 190 160 bng 15 250 50 0 empty empty empty 17 7 0 10 -262144
-1 -1;
#X msg 327 169 start;
#X obj 372 106 inlet;
#X msg 384 197 stop;
#X obj 272 233 *~ 0.5;
#X obj 245 305 outlet~;
#X msg 257 134 open crash.wav;
#X connect 0 0 1 0;
#X connect 1 0 9 0;
#X connect 1 0 3 0;
#X connect 2 0 7 0;
#X connect 3 0 4 0;
#X connect 4 0 2 0;
#X connect 5 0 6 0;
#X connect 6 0 2 0;
#X connect 7 0 8 0;
#X connect 9 0 2 0;
#X restore 1148 134 pd crash.wav;
#N canvas 469 366 450 300 snare.wav 0;
#X obj 186 69 inlet;
#X obj 194 109 tgl 15 0 empty empty empty 17 7 0 10 -262144 -1 -1 1
1;
#X obj 258 194 readsf~;
#X obj 190 160 bng 15 250 50 0 empty empty empty 17 7 0 10 -262144
-1 -1;
#X msg 327 169 start;
#X obj 372 106 inlet;
#X msg 384 197 stop;
#X obj 272 233 *~ 0.5;
#X obj 245 305 outlet~;
#X msg 257 134 open snare.wav;
#X connect 0 0 1 0;
#X connect 1 0 9 0;
#X connect 1 0 3 0;
#X connect 2 0 7 0;
#X connect 3 0 4 0;
#X connect 4 0 2 0;
#X connect 5 0 6 0;
#X connect 6 0 2 0;
#X connect 7 0 8 0;
#X connect 9 0 2 0;
#X restore 1040 328 pd snare.wav;
#N canvas 469 366 450 300 808a.wav 0;
#X obj 186 69 inlet;
#X obj 194 109 tgl 15 0 empty empty empty 17 7 0 10 -262144 -1 -1 0
1;
#X obj 258 194 readsf~;
#X obj 190 160 bng 15 250 50 0 empty empty empty 17 7 0 10 -262144
-1 -1;
#X msg 327 169 start;
#X obj 372 106 inlet;
#X msg 384 197 stop;
#X obj 272 233 *~ 0.5;
#X obj 245 305 outlet~;
#X msg 257 134 open 808a.wav;
#X connect 0 0 1 0;
#X connect 1 0 9 0;
#X connect 1 0 3 0;
#X connect 2 0 7 0;
#X connect 3 0 4 0;
#X connect 4 0 2 0;
#X connect 5 0 6 0;
#X connect 6 0 2 0;
#X connect 7 0 8 0;
#X connect 9 0 2 0;
#X restore 1131 328 pd 808a.wav;
#X obj 807 38 dac~;
#X obj 746 40 outlet~;
#X obj 786 4 *~ 0.1;
#X obj 43 176 *~ 0.2;
#X connect 0 0 1 0;
#X connect 1 0 81 0;
#X connect 2 1 14 0;
#X connect 2 1 98 0;
#X connect 3 0 4 0;
#X connect 4 0 6 0;
#X connect 5 1 99 0;
#X connect 5 1 15 0;
#X connect 6 0 5 0;
#X connect 7 0 98 1;
#X connect 8 0 99 1;
#X connect 10 0 11 0;
#X connect 11 0 94 0;
#X connect 12 1 13 0;
#X connect 16 0 17 0;
#X connect 17 0 80 0;
#X connect 18 1 100 0;
#X connect 18 1 24 0;
#X connect 19 0 20 0;
#X connect 20 0 82 0;
#X connect 21 1 101 0;
#X connect 21 1 25 0;
#X connect 22 0 100 1;
#X connect 23 0 101 1;
#X connect 26 0 27 0;
#X connect 27 0 83 0;
#X connect 28 1 102 0;
#X connect 28 1 34 0;
#X connect 29 0 30 0;
#X connect 30 0 84 0;
#X connect 31 1 103 0;
#X connect 31 1 35 0;
#X connect 32 0 102 1;
#X connect 33 0 103 1;
#X connect 36 0 37 0;
#X connect 37 0 85 0;
#X connect 38 1 104 0;
#X connect 38 1 44 0;
#X connect 39 0 40 0;
#X connect 40 0 86 0;
#X connect 41 1 105 0;
#X connect 41 1 45 0;
#X connect 42 0 104 1;
#X connect 43 0 105 1;
#X connect 46 0 47 0;
#X connect 47 0 88 0;
#X connect 48 1 107 0;
#X connect 48 1 54 0;
#X connect 49 0 50 0;
#X connect 50 0 87 0;
#X connect 51 1 106 0;
#X connect 51 1 55 0;
#X connect 52 0 107 1;
#X connect 53 0 106 1;
#X connect 56 0 57 0;
#X connect 57 0 90 0;
#X connect 58 1 109 0;
#X connect 58 1 64 0;
#X connect 59 0 60 0;
#X connect 60 0 89 0;
#X connect 61 1 108 0;
#X connect 61 1 65 0;
#X connect 62 0 109 1;
#X connect 63 0 108 1;
#X connect 66 0 67 0;
#X connect 67 0 91 0;
#X connect 68 1 110 0;
#X connect 68 1 70 0;
#X connect 69 0 110 1;
#X connect 80 0 18 0;
#X connect 81 0 2 0;
#X connect 82 0 21 0;
#X connect 83 0 28 0;
#X connect 84 0 31 0;
#X connect 85 0 38 0;
#X connect 86 0 41 0;
#X connect 87 0 51 0;
#X connect 88 0 48 0;
#X connect 89 0 61 0;
#X connect 90 0 58 0;
#X connect 91 0 68 0;
#X connect 93 0 92 0;
#X connect 94 0 12 0;
#X connect 95 0 169 0;
#X connect 111 0 112 0;
#X connect 112 0 116 0;
#X connect 113 1 115 0;
#X connect 113 1 73 0;
#X connect 114 0 115 1;
#X connect 115 0 158 0;
#X connect 115 0 158 1;
#X connect 116 0 113 0;
#X connect 117 0 118 0;
#X connect 118 0 153 0;
#X connect 119 1 163 0;
#X connect 119 1 79 0;
#X connect 120 0 163 1;
#X connect 121 0 122 0;
#X connect 122 0 149 0;
#X connect 123 1 157 0;
#X connect 123 1 71 0;
#X connect 124 0 157 1;
#X connect 125 0 126 0;
#X connect 126 0 154 0;
#X connect 127 1 162 0;
#X connect 127 1 76 0;
#X connect 128 0 162 1;
#X connect 129 0 130 0;
#X connect 130 0 150 0;
#X connect 131 1 78 0;
#X connect 131 1 159 0;
#X connect 132 0 159 1;
#X connect 133 0 134 0;
#X connect 134 0 155 0;
#X connect 135 1 164 0;
#X connect 135 1 72 0;
#X connect 136 0 164 1;
#X connect 137 0 138 0;
#X connect 138 0 151 0;
#X connect 139 1 160 0;
#X connect 139 1 74 0;
#X connect 140 0 160 1;
#X connect 141 0 142 0;
#X connect 142 0 156 0;
#X connect 143 1 165 0;
#X connect 143 1 77 0;
#X connect 144 0 165 1;
#X connect 145 0 146 0;
#X connect 146 0 152 0;
#X connect 147 1 161 0;
#X connect 147 1 75 0;
#X connect 148 0 161 1;
#X connect 149 0 123 0;
#X connect 150 0 131 0;
#X connect 151 0 139 0;
#X connect 152 0 147 0;
#X connect 153 0 119 0;
#X connect 154 0 127 0;
#X connect 155 0 135 0;
#X connect 156 0 143 0;
#X connect 157 0 158 0;
#X connect 157 0 158 1;
#X connect 158 0 168 0;
#X connect 159 0 158 0;
#X connect 159 0 158 1;
#X connect 160 0 158 0;
#X connect 160 0 158 1;
#X connect 161 0 158 0;
#X connect 161 0 158 1;
#X connect 162 0 158 0;
#X connect 162 0 158 1;
#X connect 163 0 158 0;
#X connect 163 0 158 1;
#X connect 164 0 158 0;
#X connect 164 0 158 1;
#X connect 165 0 158 0;
#X connect 165 0 158 1;
#X connect 168 0 166 0;
#X connect 168 0 166 1;
#X connect 168 0 167 0;
#X connect 169 0 96 0;
#X connect 169 0 97 0;
#X connect 169 0 97 1;
#X coords 0 -1 1 1 800 300 2 100 100;
