#N canvas 0 23 1440 855 12;
#X obj 105 105 cnv 30 710 290 empty empty empty 20 12 0 14 -13330 -66577
0;
#X obj 991 58 key;
#X floatatom 991 95 5 0 0 0 - - -;
#X obj 991 169 select 0 1;
#X obj 991 131 == 109;
#X obj 155 151 piano_vol;
#X obj 19 345 outlet~;
#X obj 1125 184 bng 15 250 50 0 empty empty empty 17 7 0 10 -262144
-1 -1;
#X obj 695 164 cnv 15 60 50 empty empty empty 20 12 0 14 -233017 -66577
0;
#X obj 1005 237 send stop;
#X obj 85 421 send~ piano;
#X obj 31 103 *~ 0.25;
#X obj 710 182 bng 30 250 50 0 empty empty MUTE -3 -10 0 16 -203904
-1 -33289;
#X obj 154 241 piano_map;
#X connect 1 0 2 0;
#X connect 2 0 4 0;
#X connect 3 1 7 0;
#X connect 4 0 3 0;
#X connect 5 0 11 0;
#X connect 7 0 9 0;
#X connect 7 0 12 0;
#X connect 11 0 6 0;
#X connect 11 0 10 0;
#X coords 0 -1 1 1 720 300 2 100 100;
