#N canvas 296 383 1014 484 12;
#X msg 81 54 \; pd dsp \$1;
#X obj 77 369 dac~;
#X obj 79 332 *~;
#X obj 118 332 *~;
#X obj 81 171 inlet~;
#X obj 137 171 inlet~;
#X obj 240 64 cnv 15 290 50 empty empty empty 20 12 0 14 -33289 -66577
0;
#X obj 255 89 hsl 260 15 0 1 0 0 empty empty MAIN_VOL 90 -10 0 16 -203904
-1 -262144 20700 1;
#X obj 253 69 tgl 15 0 empty empty ON/OFF 20 8 0 10 -167807 -1 -262144
1 1;
#N canvas 0 23 450 300 receiver 0;
#X obj 68 100 receive~ lp1_l;
#X obj 227 101 receive~ lp1_r;
#X obj 69 135 receive~ lp2_l;
#X obj 228 136 receive~ lp2_r;
#X obj 65 168 receive~ lp3_l;
#X obj 227 171 receive~ lp3_r;
#X obj 112 60 receive~ piano;
#X obj 272 56 receive~ left;
#X obj 358 84 receive~ right;
#X obj 151 264 outlet~;
#X obj 301 269 outlet~;
#X obj 67 216 receive~ lp4_l;
#X obj 229 215 receive~ lp4_r;
#X connect 0 0 9 0;
#X connect 1 0 10 0;
#X connect 2 0 9 0;
#X connect 3 0 10 0;
#X connect 4 0 9 0;
#X connect 5 0 10 0;
#X connect 6 0 9 0;
#X connect 6 0 10 0;
#X connect 7 0 9 0;
#X connect 7 0 10 0;
#X connect 8 0 9 0;
#X connect 8 0 10 0;
#X connect 11 0 9 0;
#X connect 12 0 10 0;
#X restore 318 224 pd receiver;
#X connect 2 0 1 0;
#X connect 3 0 1 1;
#X connect 4 0 2 0;
#X connect 5 0 3 0;
#X connect 7 0 2 1;
#X connect 7 0 3 1;
#X connect 8 0 0 0;
#X connect 9 0 2 0;
#X connect 9 1 3 0;
#X coords 0 -1 1 1 300 60 2 235 60;
