#N canvas 71 45 685 821 12;
#X obj 104 131 tgl 40 0 empty empty RECORD 0 -12 0 20 -4083 -1 -1 0
1;
#X obj 579 226 select 1 0;
#X msg 466 291 start;
#X msg 521 292 stop;
#X obj 577 494 phasor~;
#X obj 577 522 *~ 1, f 26;
#X obj 578 351 timer;
#X floatatom 598 378 5 0 0 0 - - -;
#X obj 579 401 t b f f;
#X obj 755 492 * 48;
#X msg 578 434 1000;
#X obj 578 464 /, f 9;
#X text 666 402 << "trigger \, bang \, float float" - sends out the
length of the recording and an impulse to make sure our calculations
are calculated correctly.;
#X obj 576 618 *~ 0.5;
#X obj 105 259 vsl 15 128 0 1 0 0 empty empty SAMP_VOL 0 -12 0 20 -4086
-1 -1 0 1;
#X obj 852 464 tgl 15 0 empty empty empty 17 7 0 10 -262144 -1 -1 1
1;
#X obj 852 498 metro 50;
#X obj 852 527 snapshot~;
#X obj 107 182 hsl 200 50 0 1 0 0 empty empty empty -2 -6 0 8 -249792
-106483 -1 8980 1;
#X obj 895 445 loadbang;
#X msg 895 468 1;
#X text 10 13 DCMU219 COMPOSING SONIC SYSTEMS- Asha Tamirisa IN CLASS
TOPICS COVERED: live looping;
#X obj 576 650 outlet~;
#X obj 572 84 cnv 15 100 60 empty empty empty 20 12 0 14 -233017 -66577
0;
#X obj 577 562 tabread~ MY_SAMPLER2;
#X obj 857 554 table MY_SAMPLER2 144000;
#X obj 405 333 tabwrite~ MY_SAMPLER2;
#X text 194 110 loop - layer 2;
#X obj 405 250 inlet~;
#X obj 680 348 outlet;
#X obj 651 290 inlet;
#X connect 0 0 1 0;
#X connect 1 0 2 0;
#X connect 1 0 6 0;
#X connect 1 1 3 0;
#X connect 1 1 6 1;
#X connect 2 0 26 0;
#X connect 3 0 26 0;
#X connect 4 0 5 0;
#X connect 4 0 17 0;
#X connect 5 0 24 0;
#X connect 6 0 7 0;
#X connect 6 0 8 0;
#X connect 7 0 29 0;
#X connect 8 0 10 0;
#X connect 8 1 11 1;
#X connect 8 2 9 0;
#X connect 9 0 5 1;
#X connect 10 0 11 0;
#X connect 11 0 4 0;
#X connect 13 0 22 0;
#X connect 14 0 13 1;
#X connect 15 0 16 0;
#X connect 16 0 17 0;
#X connect 17 0 18 0;
#X connect 19 0 20 0;
#X connect 20 0 15 0;
#X connect 24 0 13 0;
#X connect 28 0 26 0;
#X connect 30 0 8 0;
#X coords 0 -1 1 1 220 300 2 100 100;
