#N canvas 0 23 450 300 12;
#X obj 137 208 *~;
#X obj 103 244 *~;
#X obj 259 265 outlet~;
#X obj 189 246 *~ 0.5;
#X obj 102 101 cnv 15 245 57 empty empty empty 20 12 0 14 -228856 -66577
0;
#X obj 123 126 hsl 200 20 0 1 0 0 empty empty VOLUME 70 -10 0 16 -203904
-1 -1 0 1;
#X obj -33 191 receive~ bass_audio;
#X connect 0 0 3 0;
#X connect 1 0 3 0;
#X connect 3 0 2 0;
#X connect 5 0 0 1;
#X connect 5 0 1 1;
#X connect 6 0 0 0;
#X connect 6 0 1 0;
#X coords 0 -1 1 1 248 60 2 100 100;
