#N canvas 152 67 1143 719 12;
#X obj 100 100 cnv 15 420 120 empty empty empty 20 12 0 14 -233017
-66577 0;
#X obj 29 291 key;
#X floatatom 29 328 5 0 0 0 - - -;
#X obj 29 402 select 0 1;
#X obj 96 251 key;
#X floatatom 96 279 5 0 0 0 - - -;
#X obj 95 336 select 0 1;
#X obj 96 307 == 119;
#X obj 111 399 receive stop;
#X obj 189 333 receive stop;
#X obj 114 162 bng 30 250 50 0 empty empty empty 6 15 0 25 -262144
-1 -1;
#X obj 139 125 bng 30 250 50 0 empty empty empty 4 15 0 20 -262144
-1 -1;
#X obj 104 474 key;
#X floatatom 104 511 5 0 0 0 - - -;
#X obj 104 585 select 0 1;
#X obj 171 434 key;
#X floatatom 171 462 5 0 0 0 - - -;
#X obj 170 519 select 0 1;
#X obj 186 582 receive stop;
#X obj 264 516 receive stop;
#X obj 157 162 bng 30 250 50 0 empty empty empty 6 15 0 25 -262144
-1 -1;
#X obj 182 125 bng 30 250 50 0 empty empty empty 4 15 0 20 -262144
-1 -1;
#X obj 306 283 key;
#X floatatom 306 320 5 0 0 0 - - -;
#X obj 306 394 select 0 1;
#X obj 373 243 key;
#X floatatom 373 271 5 0 0 0 - - -;
#X obj 372 328 select 0 1;
#X obj 388 391 receive stop;
#X obj 466 325 receive stop;
#X obj 198 162 bng 30 250 50 0 empty empty empty 6 15 0 25 -262144
-1 -1;
#X obj 239 163 bng 30 250 50 0 empty empty empty 4 15 0 20 -262144
-1 -1;
#X obj 381 466 key;
#X floatatom 381 503 5 0 0 0 - - -;
#X obj 381 577 select 0 1;
#X obj 448 426 key;
#X floatatom 448 454 5 0 0 0 - - -;
#X obj 447 511 select 0 1;
#X obj 463 574 receive stop;
#X obj 541 508 receive stop;
#X obj 258 126 bng 30 250 50 0 empty empty empty 6 15 0 25 -262144
-1 -1;
#X obj 278 163 bng 30 250 50 0 empty empty empty 4 15 0 20 -262144
-1 -1;
#X obj 583 291 key;
#X floatatom 583 328 5 0 0 0 - - -;
#X obj 583 402 select 0 1;
#X obj 650 251 key;
#X floatatom 650 279 5 0 0 0 - - -;
#X obj 649 336 select 0 1;
#X obj 665 399 receive stop;
#X obj 743 333 receive stop;
#X obj 317 163 bng 30 250 50 0 empty empty empty 6 15 0 25 -262144
-1 -1;
#X obj 300 126 bng 30 250 50 0 empty empty empty 4 15 0 20 -262144
-1 -1;
#X obj 658 474 key;
#X floatatom 658 511 5 0 0 0 - - -;
#X obj 658 585 select 0 1;
#X obj 725 434 key;
#X floatatom 725 462 5 0 0 0 - - -;
#X obj 724 519 select 0 1;
#X obj 740 582 receive stop;
#X obj 818 516 receive stop;
#X obj 358 162 bng 30 250 50 0 empty empty empty 6 15 0 25 -262144
-1 -1;
#X obj 338 126 bng 30 250 50 0 empty empty empty 4 15 0 20 -262144
-1 -1;
#X obj 848 295 key;
#X floatatom 848 332 5 0 0 0 - - -;
#X obj 848 406 select 0 1;
#X obj 930 403 receive stop;
#X obj 399 163 bng 30 250 50 0 empty empty empty 6 15 0 25 -262144
-1 -1;
#X obj 104 547 == 115;
#X obj 29 364 == 97;
#X obj 171 490 == 101;
#X obj 306 356 == 100;
#X obj 373 299 == 102;
#X obj 381 539 == 116;
#X obj 448 482 == 103;
#X obj 650 307 == 121;
#X obj 583 364 == 104;
#X obj 725 490 == 117;
#X obj 658 547 == 106;
#X obj 849 368 == 107;
#N canvas 608 505 450 300 bass_lo_C.wav 0;
#X obj 186 69 inlet;
#X obj 194 109 tgl 15 0 empty empty empty 17 7 0 10 -262144 -1 -1 0
1;
#X obj 258 194 readsf~;
#X obj 190 160 bng 15 250 50 0 empty empty empty 17 7 0 10 -262144
-1 -1;
#X msg 327 169 start;
#X obj 372 106 inlet;
#X msg 384 197 stop;
#X obj 272 233 *~ 0.5;
#X obj 245 305 outlet~;
#X msg 257 134 open sound_samples/bass_c.wav;
#X connect 0 0 1 0;
#X connect 1 0 9 0;
#X connect 1 0 3 0;
#X connect 2 0 7 0;
#X connect 3 0 4 0;
#X connect 4 0 2 0;
#X connect 5 0 6 0;
#X connect 6 0 2 0;
#X connect 7 0 8 0;
#X connect 9 0 2 0;
#X restore 23 430 pd bass_lo_C.wav;
#N canvas 594 438 450 300 bass_lo_C+.wav 0;
#X obj 186 69 inlet;
#X obj 194 109 tgl 15 0 empty empty empty 17 7 0 10 -262144 -1 -1 0
1;
#X obj 258 194 readsf~;
#X obj 190 160 bng 15 250 50 0 empty empty empty 17 7 0 10 -262144
-1 -1;
#X msg 327 169 start;
#X obj 372 106 inlet;
#X msg 384 197 stop;
#X obj 272 233 *~ 0.5;
#X obj 245 305 outlet~;
#X msg 257 134 open sound_samples/bass_c+.wav;
#X connect 0 0 1 0;
#X connect 1 0 9 0;
#X connect 1 0 3 0;
#X connect 2 0 7 0;
#X connect 3 0 4 0;
#X connect 4 0 2 0;
#X connect 5 0 6 0;
#X connect 6 0 2 0;
#X connect 7 0 8 0;
#X connect 9 0 2 0;
#X restore 114 363 pd bass_lo_C+.wav;
#N canvas 469 366 450 300 bass_lo_D.wav 0;
#X obj 186 69 inlet;
#X obj 194 109 tgl 15 0 empty empty empty 17 7 0 10 -262144 -1 -1 0
1;
#X obj 258 194 readsf~;
#X obj 190 160 bng 15 250 50 0 empty empty empty 17 7 0 10 -262144
-1 -1;
#X msg 327 169 start;
#X obj 372 106 inlet;
#X msg 384 197 stop;
#X obj 272 233 *~ 0.5;
#X obj 271 271 outlet~;
#X msg 257 134 open sound_samples/bass_d.wav;
#X connect 0 0 1 0;
#X connect 1 0 9 0;
#X connect 1 0 3 0;
#X connect 2 0 7 0;
#X connect 3 0 4 0;
#X connect 4 0 2 0;
#X connect 5 0 6 0;
#X connect 6 0 2 0;
#X connect 7 0 8 0;
#X connect 9 0 2 0;
#X restore 98 613 pd bass_lo_D.wav;
#N canvas 594 438 450 300 bass_lo_D+.wav 0;
#X obj 186 69 inlet;
#X obj 194 109 tgl 15 0 empty empty empty 17 7 0 10 -262144 -1 -1 0
1;
#X obj 258 194 readsf~;
#X obj 190 160 bng 15 250 50 0 empty empty empty 17 7 0 10 -262144
-1 -1;
#X msg 327 169 start;
#X obj 372 106 inlet;
#X msg 384 197 stop;
#X obj 272 233 *~ 0.5;
#X obj 245 305 outlet~;
#X msg 257 134 open sound_samples/bass_d+.wav;
#X connect 0 0 1 0;
#X connect 1 0 9 0;
#X connect 1 0 3 0;
#X connect 2 0 7 0;
#X connect 3 0 4 0;
#X connect 4 0 2 0;
#X connect 5 0 6 0;
#X connect 6 0 2 0;
#X connect 7 0 8 0;
#X connect 9 0 2 0;
#X restore 189 546 pd bass_lo_D+.wav;
#N canvas 469 366 450 300 bass_lo_E.wav 0;
#X obj 186 69 inlet;
#X obj 194 109 tgl 15 0 empty empty empty 17 7 0 10 -262144 -1 -1 0
1;
#X obj 258 194 readsf~;
#X obj 190 160 bng 15 250 50 0 empty empty empty 17 7 0 10 -262144
-1 -1;
#X msg 327 169 start;
#X obj 372 106 inlet;
#X msg 384 197 stop;
#X obj 272 233 *~ 0.5;
#X obj 245 305 outlet~;
#X msg 257 134 open sound_samples/bass_e.wav;
#X connect 0 0 1 0;
#X connect 1 0 9 0;
#X connect 1 0 3 0;
#X connect 2 0 7 0;
#X connect 3 0 4 0;
#X connect 4 0 2 0;
#X connect 5 0 6 0;
#X connect 6 0 2 0;
#X connect 7 0 8 0;
#X connect 9 0 2 0;
#X restore 300 422 pd bass_lo_E.wav;
#N canvas 594 438 450 300 bass_lo_F.wav 0;
#X obj 186 69 inlet;
#X obj 194 109 tgl 15 0 empty empty empty 17 7 0 10 -262144 -1 -1 0
1;
#X obj 258 194 readsf~;
#X obj 190 160 bng 15 250 50 0 empty empty empty 17 7 0 10 -262144
-1 -1;
#X msg 327 169 start;
#X obj 372 106 inlet;
#X msg 384 197 stop;
#X obj 272 233 *~ 0.5;
#X obj 245 305 outlet~;
#X msg 257 134 open sound_samples/bass_f.wav;
#X connect 0 0 1 0;
#X connect 1 0 9 0;
#X connect 1 0 3 0;
#X connect 2 0 7 0;
#X connect 3 0 4 0;
#X connect 4 0 2 0;
#X connect 5 0 6 0;
#X connect 6 0 2 0;
#X connect 7 0 8 0;
#X connect 9 0 2 0;
#X restore 391 356 pd bass_lo_F.wav;
#N canvas 469 366 450 300 bass_lo_F+.wav 0;
#X obj 186 69 inlet;
#X obj 194 109 tgl 15 0 empty empty empty 17 7 0 10 -262144 -1 -1 0
1;
#X obj 258 194 readsf~;
#X obj 190 160 bng 15 250 50 0 empty empty empty 17 7 0 10 -262144
-1 -1;
#X msg 327 169 start;
#X obj 372 106 inlet;
#X msg 384 197 stop;
#X obj 272 233 *~ 0.5;
#X obj 245 305 outlet~;
#X msg 257 134 open sound_samples/bass_f+.wav;
#X connect 0 0 1 0;
#X connect 1 0 9 0;
#X connect 1 0 3 0;
#X connect 2 0 7 0;
#X connect 3 0 4 0;
#X connect 4 0 2 0;
#X connect 5 0 6 0;
#X connect 6 0 2 0;
#X connect 7 0 8 0;
#X connect 9 0 2 0;
#X restore 375 605 pd bass_lo_F+.wav;
#N canvas 594 438 450 300 bass_lo_G.wav 0;
#X obj 186 69 inlet;
#X obj 194 109 tgl 15 0 empty empty empty 17 7 0 10 -262144 -1 -1 0
1;
#X obj 258 194 readsf~;
#X obj 190 160 bng 15 250 50 0 empty empty empty 17 7 0 10 -262144
-1 -1;
#X msg 327 169 start;
#X obj 372 106 inlet;
#X msg 384 197 stop;
#X obj 272 233 *~ 0.5;
#X obj 245 305 outlet~;
#X msg 257 134 open sound_samples/bass_g.wav;
#X connect 0 0 1 0;
#X connect 1 0 9 0;
#X connect 1 0 3 0;
#X connect 2 0 7 0;
#X connect 3 0 4 0;
#X connect 4 0 2 0;
#X connect 5 0 6 0;
#X connect 6 0 2 0;
#X connect 7 0 8 0;
#X connect 9 0 2 0;
#X restore 466 539 pd bass_lo_G.wav;
#N canvas 610 596 450 300 bass_lo_G+.wav 0;
#X obj 186 69 inlet;
#X obj 194 109 tgl 15 0 empty empty empty 17 7 0 10 -262144 -1 -1 0
1;
#X obj 258 194 readsf~;
#X obj 190 160 bng 15 250 50 0 empty empty empty 17 7 0 10 -262144
-1 -1;
#X msg 327 169 start;
#X obj 372 106 inlet;
#X msg 384 197 stop;
#X obj 272 233 *~ 0.5;
#X obj 245 305 outlet~;
#X msg 257 134 open sound_samples/bass_g+.wav;
#X connect 0 0 1 0;
#X connect 1 0 9 0;
#X connect 1 0 3 0;
#X connect 2 0 7 0;
#X connect 3 0 4 0;
#X connect 4 0 2 0;
#X connect 5 0 6 0;
#X connect 6 0 2 0;
#X connect 7 0 8 0;
#X connect 9 0 2 0;
#X restore 668 363 pd bass_lo_G+.wav;
#N canvas 733 364 450 300 bass_lo_A.wav 0;
#X obj 186 69 inlet;
#X obj 194 109 tgl 15 0 empty empty empty 17 7 0 10 -262144 -1 -1 0
1;
#X obj 258 194 readsf~;
#X obj 190 160 bng 15 250 50 0 empty empty empty 17 7 0 10 -262144
-1 -1;
#X msg 327 169 start;
#X obj 372 106 inlet;
#X msg 384 197 stop;
#X obj 272 233 *~ 0.5;
#X obj 245 305 outlet~;
#X msg 257 134 open sound_samples/bass_a.wav;
#X connect 0 0 1 0;
#X connect 1 0 9 0;
#X connect 1 0 3 0;
#X connect 2 0 7 0;
#X connect 3 0 4 0;
#X connect 4 0 2 0;
#X connect 5 0 6 0;
#X connect 6 0 2 0;
#X connect 7 0 8 0;
#X connect 9 0 2 0;
#X restore 577 430 pd bass_lo_A.wav;
#N canvas 594 520 450 300 bass_lo_A+.wav 0;
#X obj 186 69 inlet;
#X obj 194 109 tgl 15 0 empty empty empty 17 7 0 10 -262144 -1 -1 1
1;
#X obj 258 194 readsf~;
#X obj 190 160 bng 15 250 50 0 empty empty empty 17 7 0 10 -262144
-1 -1;
#X msg 327 169 start;
#X obj 372 106 inlet;
#X msg 384 197 stop;
#X obj 272 233 *~ 0.5;
#X obj 245 305 outlet~;
#X msg 257 134 open sound_samples/bass_a+.wav;
#X connect 0 0 1 0;
#X connect 1 0 9 0;
#X connect 1 0 3 0;
#X connect 2 0 7 0;
#X connect 3 0 4 0;
#X connect 4 0 2 0;
#X connect 5 0 6 0;
#X connect 6 0 2 0;
#X connect 7 0 8 0;
#X connect 9 0 2 0;
#X restore 743 546 pd bass_lo_A+.wav;
#N canvas 469 366 450 300 bass_lo_B.wav 0;
#X obj 186 69 inlet;
#X obj 194 109 tgl 15 0 empty empty empty 17 7 0 10 -262144 -1 -1 0
1;
#X obj 258 194 readsf~;
#X obj 190 160 bng 15 250 50 0 empty empty empty 17 7 0 10 -262144
-1 -1;
#X msg 327 169 start;
#X obj 372 106 inlet;
#X msg 384 197 stop;
#X obj 272 233 *~ 0.5;
#X obj 245 305 outlet~;
#X msg 257 134 open sound_samples/bass_b.wav;
#X connect 0 0 1 0;
#X connect 1 0 9 0;
#X connect 1 0 3 0;
#X connect 2 0 7 0;
#X connect 3 0 4 0;
#X connect 4 0 2 0;
#X connect 5 0 6 0;
#X connect 6 0 2 0;
#X connect 7 0 8 0;
#X connect 9 0 2 0;
#X restore 652 613 pd bass_lo_B.wav;
#N canvas 469 366 450 300 bass_mi_C.wav 0;
#X obj 186 69 inlet;
#X obj 194 109 tgl 15 0 empty empty empty 17 7 0 10 -262144 -1 -1 0
1;
#X obj 258 194 readsf~;
#X obj 190 160 bng 15 250 50 0 empty empty empty 17 7 0 10 -262144
-1 -1;
#X msg 327 169 start;
#X obj 372 106 inlet;
#X msg 384 197 stop;
#X obj 272 233 *~ 0.5;
#X obj 245 305 outlet~;
#X msg 257 134 open sound_samples/bass_hiC.wav;
#X connect 0 0 1 0;
#X connect 1 0 9 0;
#X connect 1 0 3 0;
#X connect 2 0 7 0;
#X connect 3 0 4 0;
#X connect 4 0 2 0;
#X connect 5 0 6 0;
#X connect 6 0 2 0;
#X connect 7 0 8 0;
#X connect 9 0 2 0;
#X restore 842 434 pd bass_mi_C.wav;
#X obj 418 126 bng 30 250 50 0 empty empty empty 4 15 0 20 -262144
-1 -1;
#X obj 436 163 bng 30 250 50 0 empty empty empty 6 15 0 25 -262144
-1 -1;
#X obj 461 126 bng 30 250 50 0 empty empty empty 4 15 0 20 -262144
-1 -1;
#X obj 477 163 bng 30 250 50 0 empty empty empty 6 15 0 25 -262144
-1 -1;
#X obj 351 669 send~ bass_audio;
#X connect 1 0 2 0;
#X connect 2 0 68 0;
#X connect 3 1 10 0;
#X connect 3 1 79 0;
#X connect 4 0 5 0;
#X connect 5 0 7 0;
#X connect 6 1 80 0;
#X connect 6 1 11 0;
#X connect 7 0 6 0;
#X connect 8 0 79 1;
#X connect 9 0 80 1;
#X connect 12 0 13 0;
#X connect 13 0 67 0;
#X connect 14 1 81 0;
#X connect 14 1 20 0;
#X connect 15 0 16 0;
#X connect 16 0 69 0;
#X connect 17 1 82 0;
#X connect 17 1 21 0;
#X connect 18 0 81 1;
#X connect 19 0 82 1;
#X connect 22 0 23 0;
#X connect 23 0 70 0;
#X connect 24 1 83 0;
#X connect 24 1 30 0;
#X connect 25 0 26 0;
#X connect 26 0 71 0;
#X connect 27 1 84 0;
#X connect 27 1 31 0;
#X connect 28 0 83 1;
#X connect 29 0 84 1;
#X connect 32 0 33 0;
#X connect 33 0 72 0;
#X connect 34 1 85 0;
#X connect 34 1 40 0;
#X connect 35 0 36 0;
#X connect 36 0 73 0;
#X connect 37 1 86 0;
#X connect 37 1 41 0;
#X connect 38 0 85 1;
#X connect 39 0 86 1;
#X connect 42 0 43 0;
#X connect 43 0 75 0;
#X connect 44 1 88 0;
#X connect 44 1 50 0;
#X connect 45 0 46 0;
#X connect 46 0 74 0;
#X connect 47 1 87 0;
#X connect 47 1 51 0;
#X connect 48 0 88 1;
#X connect 49 0 87 1;
#X connect 52 0 53 0;
#X connect 53 0 77 0;
#X connect 54 1 90 0;
#X connect 54 1 60 0;
#X connect 55 0 56 0;
#X connect 56 0 76 0;
#X connect 57 1 89 0;
#X connect 57 1 61 0;
#X connect 58 0 90 1;
#X connect 59 0 89 1;
#X connect 62 0 63 0;
#X connect 63 0 78 0;
#X connect 64 1 91 0;
#X connect 64 1 66 0;
#X connect 65 0 91 1;
#X connect 67 0 14 0;
#X connect 68 0 3 0;
#X connect 69 0 17 0;
#X connect 70 0 24 0;
#X connect 71 0 27 0;
#X connect 72 0 34 0;
#X connect 73 0 37 0;
#X connect 74 0 47 0;
#X connect 75 0 44 0;
#X connect 76 0 57 0;
#X connect 77 0 54 0;
#X connect 78 0 64 0;
#X connect 79 0 96 0;
#X connect 80 0 96 0;
#X connect 81 0 96 0;
#X connect 82 0 96 0;
#X connect 83 0 96 0;
#X connect 84 0 96 0;
#X connect 85 0 96 0;
#X connect 86 0 96 0;
#X connect 87 0 96 0;
#X connect 88 0 96 0;
#X connect 89 0 96 0;
#X connect 90 0 96 0;
#X connect 91 0 96 0;
#X coords 0 -1 1 1 420 120 2 100 100;
