#N canvas 194 23 1227 839 12;
#X obj 423 122 key;
#X floatatom 456 169 5 0 0 0 - - -;
#X obj 655 113 keyup;
#X floatatom 684 160 5 0 0 0 - - -;
#X obj 424 221 select 97 115 100 201 103;
#X msg 434 277 60;
#X msg 467 277 62;
#X msg 537 278 65;
#X msg 500 277 64;
#X msg 572 278 67;
#X obj 654 218 select 97 115 100 201 103;
#X msg 664 274 60;
#X msg 697 274 62;
#X msg 767 275 65;
#X msg 730 274 64;
#X msg 802 275 67;
#X msg 349 284 0.5;
#X obj 430 333 mtof;
#X obj 431 374 osc~;
#X obj 429 427 *~ 0.5;
#X obj 429 476 dac~;
#X obj 677 404 noise~;
#X obj 674 475 vcf~, f 16;
#X obj 891 467 vcf~, f 19;
#X obj 889 404 phasor~;
#X obj 981 348 hsl 128 15 0 20000 0 0 empty empty empty -2 -8 0 10
-262144 -1 -1 0 1;
#X floatatom 999 386 5 0 0 0 - - -;
#X obj 979 419 sig~;
#X floatatom 1051 421 5 0 0 0 - - -;
#X obj 885 628 *~ 0.5;
#X obj 887 674 send~ phase;
#X obj 954 492 vsl 15 128 0 127 0 0 empty empty empty 0 -9 0 10 -262144
-1 -1 0 1;
#X floatatom 954 636 5 0 0 0 - - -;
#X obj 1023 657 *~ 0.5;
#X obj 1075 517 vsl 15 128 0 127 0 0 empty empty empty 0 -9 0 10 -262144
-1 -1 0 1;
#X floatatom 1100 665 5 0 0 0 - - -;
#X obj 574 608 receive~ phase;
#X obj 596 675 *~ 0.5;
#X obj 657 675 *~ 0.5;
#X obj 623 716 dac~;
#X obj 723 532 vsl 15 128 0 127 0 0 empty empty empty 0 -9 0 10 -262144
-1 -1 0 1;
#X floatatom 748 690 5 0 0 0 - - -;
#X obj 247 575 receive~ leftAudio;
#X obj 317 601 receive~ rightAudio;
#X obj 249 760 writesf~ 2;
#X msg 368 654 open myFile.wav;
#X msg 400 685 start;
#X msg 416 714 stop;
#X obj 586 753 send~ leftAudio;
#X obj 722 752 send~ rightAudio;
#X text 1093 417 resonance;
#X text 1105 591 volume;
#X text 972 544 volume;
#X obj 1118 321 loadbang;
#X msg 1118 366 1;
#X obj 977 289 * 10000;
#X floatatom 999 318 5 0 0 0 - - -;
#X obj 1057 263 line;
#X obj 975 233 / 20;
#X floatatom 998 259 5 0 0 0 - - -;
#X obj 965 74 tgl 15 0 empty empty empty 17 7 0 10 -262144 -1 -1 0
1;
#X obj 966 100 metro 500;
#X obj 967 129 random 20;
#X msg 972 159 \$1 500;
#X obj 974 194 line;
#X obj 974 217;
#X connect 0 0 1 0;
#X connect 0 0 4 0;
#X connect 2 0 3 0;
#X connect 2 0 10 0;
#X connect 4 0 5 0;
#X connect 4 0 16 0;
#X connect 4 1 6 0;
#X connect 4 1 16 0;
#X connect 4 2 8 0;
#X connect 4 2 16 0;
#X connect 4 3 7 0;
#X connect 4 3 16 0;
#X connect 4 4 9 0;
#X connect 4 4 16 0;
#X connect 5 0 17 0;
#X connect 6 0 17 0;
#X connect 7 0 17 0;
#X connect 8 0 17 0;
#X connect 9 0 17 0;
#X connect 10 0 11 0;
#X connect 10 1 12 0;
#X connect 10 2 14 0;
#X connect 10 3 13 0;
#X connect 10 4 15 0;
#X connect 17 0 18 0;
#X connect 18 0 19 0;
#X connect 19 0 20 0;
#X connect 19 0 20 1;
#X connect 23 0 29 0;
#X connect 23 1 33 0;
#X connect 24 0 23 0;
#X connect 25 0 27 0;
#X connect 25 0 26 0;
#X connect 27 0 23 1;
#X connect 28 0 23 2;
#X connect 29 0 30 0;
#X connect 31 0 29 1;
#X connect 31 0 32 0;
#X connect 33 0 30 0;
#X connect 34 0 35 0;
#X connect 34 0 33 1;
#X connect 36 0 37 0;
#X connect 36 0 38 0;
#X connect 37 0 39 0;
#X connect 37 0 48 0;
#X connect 38 0 39 1;
#X connect 38 0 49 0;
#X connect 40 0 41 0;
#X connect 40 0 38 1;
#X connect 40 0 37 1;
#X connect 42 0 44 0;
#X connect 43 0 44 1;
#X connect 45 0 44 0;
#X connect 46 0 44 0;
#X connect 47 0 44 0;
#X connect 53 0 54 0;
#X connect 54 0 26 0;
#X connect 55 0 56 0;
#X connect 55 0 25 0;
#X connect 57 0 28 0;
#X connect 58 0 59 0;
#X connect 58 0 55 0;
#X connect 60 0 61 0;
#X connect 61 0 62 0;
#X connect 62 0 63 0;
#X connect 63 0 64 0;
#X connect 64 0 58 0;
#X connect 64 0 65 0;
