#N canvas 0 281 1347 443 12;
#X obj 647 269 writesf~;
#X msg 649 225 stop;
#X obj 525 307 tgl 15 0 empty empty empty 17 7 0 10 -262144 -1 -1 0
1;
#X obj 585 378 readsf~;
#X obj 524 344 bng 15 250 50 0 empty empty empty 17 7 0 10 -262144
-1 -1;
#X msg 653 359 start;
#X msg 742 359 stop;
#X obj 585 414 *~ 0.5;
#X obj 358 205 select 1 0;
#X obj 358 105 timer;
#X obj 391 267 metro 1000;
#X obj 467 295 bng 15 250 50 0 empty empty empty 17 7 0 10 -262144
-1 -1;
#X obj 740 251 inlet~;
#X obj 585 451 +~ 0;
#X obj 560 206 outlet;
#X obj 105 104 cnv 15 200 290 empty empty empty 20 12 0 14 -13330 -66577
0;
#X obj 130 164 tgl 40 0 empty empty RECORD -17 -12 0 20 -258113 -1
-262144 0 1;
#X obj 118 250 vsl 15 128 0 1 0 0 empty empty VOL -6 -12 0 16 -4034
-1 -262144 0 1;
#X obj 179 250 vsl 15 128 0 1 0 0 empty empty PITCH -17 -12 0 16 -4034
-1 -262144 0 1;
#X obj 247 250 vsl 15 128 0 1 0 0 empty empty REVERB -20 -12 0 16 -4034
-1 -262144 0 1;
#X obj 199 176 nbx 4 30 -1e+37 1e+37 0 1 empty empty DURATION 0 -14
0 16 -204800 -1 -262144 316 256;
#X text 202 110 loop - layer 2;
#X obj 142 117 bng 15 200 50 0 empty empty empty 17 7 0 10 -258113
-1 -1;
#N canvas 0 23 450 300 receiver 0;
#X obj 54 83 receive~ right;
#X obj 57 108 receive~ left;
#X obj 57 131 receive~ piano;
#X obj 54 174 outlet~;
#X connect 0 0 3 0;
#X connect 1 0 3 0;
#X connect 2 0 3 0;
#X restore 719 214 pd receiver;
#X obj 799 73 receive state;
#X obj 15 71 receive tempo1;
#X obj 201 49 receive tempo2;
#X obj 21 152 bng 15 250 50 0 empty empty empty 17 7 0 10 -262144 -1
-1;
#X obj 132 66 bng 15 250 50 0 empty empty empty 17 7 0 10 -262144 -1
-1;
#X obj 471 75 receive tempo;
#X obj 879 185 * 2;
#X floatatom 879 219 5 0 0 0 - - -;
#X obj 874 106 receive duration;
#X floatatom 874 150 5 0 0 0 - - -;
#X obj 800 284 select 0 1;
#X obj 797 342 bng 15 250 50 0 empty empty empty 17 7 0 10 -262144
-1 -1;
#X obj 839 337 bng 15 250 50 0 empty empty empty 17 7 0 10 -262144
-1 -1;
#X floatatom 877 270 5 0 0 0 - - -;
#X obj 877 314 outlet;
#X obj 932 288 send tempo;
#X obj 471 108 receive state;
#X obj 471 138 select 0 1;
#X floatatom 417 156 5 0 0 0 - - -;
#X obj 482 511 send~ lp2_l;
#X obj 641 512 send~ lp2_r;
#X msg 406 229 open loop_layers/loop2.wav \, start;
#X msg 588 322 open loop_layers/loop2.wav;
#X connect 1 0 0 0;
#X connect 2 0 46 0;
#X connect 2 0 4 0;
#X connect 3 0 7 0;
#X connect 4 0 5 0;
#X connect 5 0 3 0;
#X connect 6 0 3 0;
#X connect 7 0 13 0;
#X connect 8 0 9 0;
#X connect 8 0 45 0;
#X connect 8 1 9 1;
#X connect 8 1 10 0;
#X connect 8 1 1 0;
#X connect 10 0 11 0;
#X connect 11 0 2 0;
#X connect 11 0 22 0;
#X connect 12 0 0 0;
#X connect 13 0 43 0;
#X connect 13 0 44 0;
#X connect 16 0 8 0;
#X connect 17 0 7 1;
#X connect 18 0 13 1;
#X connect 20 0 14 0;
#X connect 23 0 0 0;
#X connect 24 0 34 0;
#X connect 25 0 27 0;
#X connect 25 0 16 0;
#X connect 26 0 28 0;
#X connect 28 0 16 0;
#X connect 29 0 42 0;
#X connect 30 0 31 0;
#X connect 31 0 37 0;
#X connect 32 0 33 0;
#X connect 33 0 30 0;
#X connect 33 0 37 0;
#X connect 34 0 35 0;
#X connect 34 0 33 0;
#X connect 34 1 36 0;
#X connect 34 1 31 0;
#X connect 37 0 38 0;
#X connect 37 0 39 0;
#X connect 40 0 41 0;
#X connect 41 1 42 0;
#X connect 42 0 20 0;
#X connect 42 0 10 1;
#X connect 45 0 0 0;
#X connect 46 0 3 0;
#X coords 0 -1 1 1 210 300 2 100 100;
