#N canvas 82 23 831 543 12;
#X obj 649 254 writesf~;
#X msg 648 215 stop;
#X obj 524 297 tgl 15 0 empty empty empty 17 7 0 10 -262144 -1 -1 0
1;
#X obj 584 363 readsf~;
#X msg 652 344 start;
#X msg 741 344 stop;
#X obj 584 388 *~ 0.5;
#X obj 357 197 select 1 0;
#X obj 359 133 timer;
#X floatatom 458 150 5 0 0 0 - - -;
#X obj 391 245 metro 1000;
#X obj 474 283 bng 15 250 50 0 empty empty empty 17 7 0 10 -262144
-1 -1;
#X obj 739 236 inlet~;
#X obj 584 436 +~ 0;
#X obj 558 167 outlet;
#X obj 48 140 inlet;
#X obj 105 104 cnv 15 200 290 empty empty empty 20 12 0 14 -13330 -66577
0;
#X obj 130 162 tgl 40 0 empty empty RECORD -10 -12 0 20 -258113 -1
-262144 0 1;
#X obj 121 252 vsl 15 128 0 1 0 0 empty empty VOL -6 -12 0 16 -4034
-1 -262144 12700 1;
#X obj 182 253 vsl 15 128 0 1 0 0 empty empty PITCH -17 -12 0 16 -4034
-1 -262144 0 1;
#X obj 247 253 vsl 15 128 0 1 0 0 empty empty REVERB -20 -12 0 16 -4034
-1 -262144 0 1;
#X obj 204 174 nbx 4 30 -1e+37 1e+37 0 1 empty empty DURATION 0 -14
0 16 -204800 -1 -262144 3488.8 256;
#X obj 416 312 outlet;
#X obj 142 115 bng 15 200 50 0 empty empty empty 17 7 0 10 -258113
-1 -1;
#X text 202 110 loop - layer 1;
#X obj 538 89 send duration;
#N canvas 385 450 450 300 receiver 0;
#X obj 54 83 receive~ right;
#X obj 57 108 receive~ left;
#X obj 57 131 receive~ piano;
#X obj 54 174 outlet~;
#X connect 0 0 3 0;
#X connect 1 0 3 0;
#X connect 2 0 3 0;
#X restore 682 154 pd receiver;
#X obj 384 345 send bang;
#X obj 532 333 bng 15 250 50 0 empty empty empty 17 7 0 10 -262144
-1 -1;
#X obj 656 498 send~ lp1_r;
#X obj 460 499 send~ lp1_l;
#X msg 406 215 open loop_layers/loop1.wav \, start;
#X msg 587 307 open loop_layers/loop1.wav;
#X connect 1 0 0 0;
#X connect 2 0 32 0;
#X connect 3 0 6 0;
#X connect 4 0 3 0;
#X connect 5 0 3 0;
#X connect 6 0 13 0;
#X connect 7 0 8 0;
#X connect 7 0 31 0;
#X connect 7 1 8 1;
#X connect 7 1 10 0;
#X connect 7 1 1 0;
#X connect 8 0 9 0;
#X connect 9 0 10 1;
#X connect 9 0 14 0;
#X connect 9 0 21 0;
#X connect 9 0 25 0;
#X connect 10 0 11 0;
#X connect 10 0 23 0;
#X connect 11 0 2 0;
#X connect 11 0 28 0;
#X connect 12 0 0 0;
#X connect 13 0 29 0;
#X connect 13 0 30 0;
#X connect 15 0 17 0;
#X connect 17 0 7 0;
#X connect 18 0 6 1;
#X connect 19 0 13 1;
#X connect 21 0 14 0;
#X connect 23 0 22 0;
#X connect 23 0 27 0;
#X connect 26 0 0 0;
#X connect 28 0 4 0;
#X connect 31 0 0 0;
#X connect 32 0 3 0;
#X coords 0 -1 1 1 210 300 2 100 100;
