#N canvas 0 406 1440 472 12;
#X obj 649 254 writesf~;
#X msg 648 215 stop;
#X obj 524 292 tgl 15 0 empty empty empty 17 7 0 10 -262144 -1 -1 0
1;
#X obj 584 363 readsf~;
#X obj 523 329 bng 15 250 50 0 empty empty empty 17 7 0 10 -262144
-1 -1;
#X msg 652 344 start;
#X msg 741 344 stop;
#X obj 584 399 *~ 0.5;
#X obj 357 197 select 1 0;
#X obj 359 133 timer;
#X floatatom 458 150 5 0 0 0 - - -;
#X obj 390 252 metro 1000;
#X obj 524 270 bng 15 250 50 0 empty empty empty 17 7 0 10 -262144
-1 -1;
#X obj 739 236 inlet~;
#X obj 584 436 +~ 0;
#X obj 558 167 outlet;
#X obj 105 104 cnv 15 200 280 empty empty empty 20 12 0 14 -13330 -66577
0;
#X obj 134 158 tgl 40 0 empty empty RECORD -15 -12 0 20 -258113 -1
-262144 0 1;
#X obj 118 247 vsl 15 128 0 1 0 0 empty empty VOL -6 -12 0 16 -4034
-1 -262144 0 1;
#X obj 183 248 vsl 15 128 0 1 0 0 empty empty PITCH -17 -12 0 16 -4034
-1 -262144 0 1;
#X obj 251 248 vsl 15 128 0 1 0 0 empty empty REVERB -20 -12 0 16 -4034
-1 -262144 0 1;
#X obj 204 170 nbx 4 30 -1e+37 1e+37 0 1 empty empty DURATION 0 -14
0 16 -204800 -1 -262144 3488.8 256;
#X text 202 110 loop - layer 3;
#N canvas 0 23 450 300 receiver 0;
#X obj 54 83 receive~ right;
#X obj 57 108 receive~ left;
#X obj 57 131 receive~ piano;
#X obj 54 174 outlet~;
#X connect 0 0 3 0;
#X connect 1 0 3 0;
#X connect 2 0 3 0;
#X restore 722 179 pd receiver;
#X obj 918 203 * 2;
#X floatatom 918 237 5 0 0 0 - - -;
#X obj 913 124 receive duration;
#X floatatom 913 168 5 0 0 0 - - -;
#X obj 839 302 select 0 1;
#X obj 836 360 bng 15 250 50 0 empty empty empty 17 7 0 10 -262144
-1 -1;
#X obj 878 355 bng 15 250 50 0 empty empty empty 17 7 0 10 -262144
-1 -1;
#X floatatom 916 288 5 0 0 0 - - -;
#X obj 916 332 outlet;
#X obj 971 306 send tempo;
#X obj 506 52 receive tempo;
#X obj 506 115 select 0 1;
#X obj 838 91 receive state3;
#X obj 506 85 receive state3;
#X obj 140 61 bng 15 250 50 0 empty empty empty 17 7 0 10 -262144 -1
-1;
#X obj 40 132 bng 15 250 50 0 empty empty empty 17 7 0 10 -262144 -1
-1;
#X obj 30 37 receive tempo3;
#X obj 209 44 receive tempo4;
#X obj 482 511 send~ lp3_l;
#X obj 641 512 send~ lp3_r;
#X obj 150 114 bng 15 250 50 0 empty empty empty 17 7 0 10 -258113
-1 -1;
#X msg 400 215 open loop_layers/loop3.wav \, start;
#X msg 587 307 open loop_layers/loop3.wav;
#X connect 1 0 0 0;
#X connect 2 0 46 0;
#X connect 2 0 4 0;
#X connect 3 0 7 0;
#X connect 4 0 5 0;
#X connect 5 0 3 0;
#X connect 6 0 3 0;
#X connect 7 0 14 0;
#X connect 8 0 9 0;
#X connect 8 0 45 0;
#X connect 8 1 9 1;
#X connect 8 1 11 0;
#X connect 8 1 1 0;
#X connect 9 0 10 0;
#X connect 10 0 11 1;
#X connect 10 0 15 0;
#X connect 10 0 21 0;
#X connect 11 0 12 0;
#X connect 11 0 44 0;
#X connect 12 0 2 0;
#X connect 13 0 0 0;
#X connect 14 0 42 0;
#X connect 14 0 43 0;
#X connect 17 0 8 0;
#X connect 18 0 7 1;
#X connect 19 0 14 1;
#X connect 21 0 15 0;
#X connect 23 0 0 0;
#X connect 24 0 25 0;
#X connect 25 0 31 0;
#X connect 26 0 27 0;
#X connect 27 0 24 0;
#X connect 27 0 31 0;
#X connect 28 0 29 0;
#X connect 28 0 27 0;
#X connect 28 1 30 0;
#X connect 28 1 25 0;
#X connect 31 0 32 0;
#X connect 31 0 33 0;
#X connect 34 0 10 0;
#X connect 35 1 10 0;
#X connect 36 0 28 0;
#X connect 37 0 35 0;
#X connect 40 0 39 0;
#X connect 40 0 17 0;
#X connect 41 0 38 0;
#X connect 41 0 17 0;
#X connect 45 0 0 0;
#X connect 46 0 3 0;
#X coords 0 -1 1 1 210 290 2 100 100;
