#N canvas 302 60 1060 668 12;
#X obj 101 101 cnv 15 120 120 empty empty empty 20 12 0 14 -233017
-66577 0;
#X obj 145 108 bng 30 250 50 0 empty empty empty 4 15 0 20 -66577 -203904
-1;
#X obj 146 182 bng 30 250 50 0 empty empty empty 6 15 0 25 -66577 -203904
-1;
#X obj 107 108 bng 30 250 50 0 empty empty empty 6 15 0 25 -66577 -203904
-1;
#X obj 107 145 bng 30 250 50 0 empty empty empty 4 15 0 20 -66577 -203904
-1;
#X obj 145 145 bng 30 250 50 0 empty empty empty 6 15 0 25 -66577 -203904
-1;
#X obj 108 182 bng 30 250 50 0 empty empty empty 4 15 0 20 -66577 -203904
-1;
#X obj 183 182 bng 30 250 50 0 empty empty empty 6 15 0 25 -66577 -203904
-1;
#X obj 183 108 bng 30 250 50 0 empty empty empty 4 15 0 20 -66577 -203904
-1;
#X obj 183 146 bng 30 250 50 0 empty empty empty 4 15 0 20 -66577 -203904
-1;
#X obj 445 56 key;
#X floatatom 445 93 5 0 0 0 - - -;
#X obj 445 167 select 0 1;
#X obj 439 222 receive stop;
#N canvas 469 366 450 300 kick.wav 1;
#X obj 186 69 inlet;
#X obj 194 109 tgl 15 0 empty empty empty 17 7 0 10 -262144 -1 -1 1
1;
#X obj 258 194 readsf~;
#X obj 190 160 bng 15 250 50 0 empty empty empty 17 7 0 10 -262144
-1 -1;
#X msg 327 169 start;
#X obj 372 106 inlet;
#X msg 384 197 stop;
#X obj 272 233 *~ 0.5;
#X obj 245 305 outlet~;
#X msg 257 134 open sound_samples/kick.wav;
#X connect 0 0 1 0;
#X connect 1 0 9 0;
#X connect 1 0 3 0;
#X connect 2 0 7 0;
#X connect 3 0 4 0;
#X connect 4 0 2 0;
#X connect 5 0 6 0;
#X connect 6 0 2 0;
#X connect 7 0 8 0;
#X connect 9 0 2 0;
#X restore 439 195 pd kick.wav;
#X obj 446 129 == 49;
#X obj 654 255 key;
#X floatatom 654 292 5 0 0 0 - - -;
#X obj 654 366 select 0 1;
#X obj 648 421 receive stop;
#X obj 536 56 key;
#X floatatom 536 93 5 0 0 0 - - -;
#X obj 536 167 select 0 1;
#X obj 535 222 receive stop;
#X obj 450 448 key;
#X floatatom 450 485 5 0 0 0 - - -;
#X obj 450 559 select 0 1;
#X obj 444 614 receive stop;
#X obj 652 57 key;
#X floatatom 652 94 5 0 0 0 - - -;
#X obj 652 168 select 0 1;
#X obj 646 223 receive stop;
#X obj 546 449 key;
#X floatatom 546 486 5 0 0 0 - - -;
#X obj 546 560 select 0 1;
#X obj 540 615 receive stop;
#X obj 443 250 key;
#X floatatom 443 287 5 0 0 0 - - -;
#X obj 443 361 select 0 1;
#X obj 437 416 receive stop;
#X obj 637 449 key;
#X floatatom 637 486 5 0 0 0 - - -;
#X obj 637 560 select 0 1;
#X obj 631 615 receive stop;
#X obj 547 253 key;
#X floatatom 547 290 5 0 0 0 - - -;
#X obj 547 364 select 0 1;
#X obj 541 419 receive stop;
#X obj 537 129 == 50;
#X obj 653 130 == 51;
#X obj 444 323 == 52;
#X obj 548 326 == 53;
#X obj 655 328 == 54;
#X obj 451 521 == 55;
#X obj 547 522 == 56;
#X obj 638 522 == 57;
#N canvas 469 366 450 300 rimshot.wav 1;
#X obj 186 69 inlet;
#X obj 194 109 tgl 15 0 empty empty empty 17 7 0 10 -262144 -1 -1 1
1;
#X obj 258 194 readsf~;
#X obj 190 160 bng 15 250 50 0 empty empty empty 17 7 0 10 -262144
-1 -1;
#X msg 327 169 start;
#X obj 372 106 inlet;
#X msg 384 197 stop;
#X obj 272 233 *~ 0.5;
#X obj 245 305 outlet~;
#X msg 257 134 open sound_samples/rimshot.wav;
#X connect 0 0 1 0;
#X connect 1 0 9 0;
#X connect 1 0 3 0;
#X connect 2 0 7 0;
#X connect 3 0 4 0;
#X connect 4 0 2 0;
#X connect 5 0 6 0;
#X connect 6 0 2 0;
#X connect 7 0 8 0;
#X connect 9 0 2 0;
#X restore 530 195 pd rimshot.wav;
#N canvas 469 366 450 300 closed.wav 1;
#X obj 186 69 inlet;
#X obj 194 109 tgl 15 0 empty empty empty 17 7 0 10 -262144 -1 -1 1
1;
#X obj 258 194 readsf~;
#X obj 190 160 bng 15 250 50 0 empty empty empty 17 7 0 10 -262144
-1 -1;
#X msg 327 169 start;
#X obj 372 106 inlet;
#X msg 384 197 stop;
#X obj 245 305 outlet~;
#X obj 272 233 *~ 0.25;
#X msg 257 134 open sound_samples/closed.wav;
#X connect 0 0 1 0;
#X connect 1 0 9 0;
#X connect 1 0 3 0;
#X connect 2 0 8 0;
#X connect 3 0 4 0;
#X connect 4 0 2 0;
#X connect 5 0 6 0;
#X connect 6 0 2 0;
#X connect 8 0 7 0;
#X connect 9 0 2 0;
#X restore 646 196 pd closed.wav;
#N canvas 469 366 450 300 open.wav 0;
#X obj 186 69 inlet;
#X obj 194 109 tgl 15 0 empty empty empty 17 7 0 10 -262144 -1 -1 0
1;
#X obj 258 194 readsf~;
#X obj 190 160 bng 15 250 50 0 empty empty empty 17 7 0 10 -262144
-1 -1;
#X msg 327 169 start;
#X obj 372 106 inlet;
#X msg 384 197 stop;
#X obj 272 233 *~ 0.5;
#X obj 245 305 outlet~;
#X msg 257 134 open sound_samples/open.wav;
#X connect 0 0 1 0;
#X connect 1 0 9 0;
#X connect 1 0 3 0;
#X connect 2 0 7 0;
#X connect 3 0 4 0;
#X connect 4 0 2 0;
#X connect 5 0 6 0;
#X connect 6 0 2 0;
#X connect 7 0 8 0;
#X connect 9 0 2 0;
#X restore 436 389 pd open.wav;
#N canvas 469 366 450 300 cymbal.wav 0;
#X obj 186 69 inlet;
#X obj 194 109 tgl 15 0 empty empty empty 17 7 0 10 -262144 -1 -1 0
1;
#X obj 258 194 readsf~;
#X obj 190 160 bng 15 250 50 0 empty empty empty 17 7 0 10 -262144
-1 -1;
#X msg 327 169 start;
#X obj 372 106 inlet;
#X msg 384 197 stop;
#X obj 272 233 *~ 0.5;
#X obj 245 305 outlet~;
#X msg 257 134 open sound_samples/cymbal.wav;
#X connect 0 0 1 0;
#X connect 1 0 9 0;
#X connect 1 0 3 0;
#X connect 2 0 7 0;
#X connect 3 0 4 0;
#X connect 4 0 2 0;
#X connect 5 0 6 0;
#X connect 6 0 2 0;
#X connect 7 0 8 0;
#X connect 9 0 2 0;
#X restore 541 392 pd cymbal.wav;
#N canvas 469 366 450 300 clap.wav 0;
#X obj 186 69 inlet;
#X obj 194 109 tgl 15 0 empty empty empty 17 7 0 10 -262144 -1 -1 0
1;
#X obj 258 194 readsf~;
#X obj 190 160 bng 15 250 50 0 empty empty empty 17 7 0 10 -262144
-1 -1;
#X msg 327 169 start;
#X obj 372 106 inlet;
#X msg 384 197 stop;
#X obj 245 305 outlet~;
#X obj 272 233 *~ 0.05;
#X msg 257 134 open sound_samples/clap.wav;
#X connect 0 0 1 0;
#X connect 1 0 9 0;
#X connect 1 0 3 0;
#X connect 2 0 8 0;
#X connect 3 0 4 0;
#X connect 4 0 2 0;
#X connect 5 0 6 0;
#X connect 6 0 2 0;
#X connect 8 0 7 0;
#X connect 9 0 2 0;
#X restore 444 587 pd clap.wav;
#N canvas 469 366 450 300 crash.wav 0;
#X obj 186 69 inlet;
#X obj 194 109 tgl 15 0 empty empty empty 17 7 0 10 -262144 -1 -1 0
1;
#X obj 258 194 readsf~;
#X obj 190 160 bng 15 250 50 0 empty empty empty 17 7 0 10 -262144
-1 -1;
#X msg 327 169 start;
#X obj 372 106 inlet;
#X msg 384 197 stop;
#X obj 272 233 *~ 0.5;
#X obj 245 305 outlet~;
#X msg 257 134 open sound_samples/crash.wav;
#X connect 0 0 1 0;
#X connect 1 0 9 0;
#X connect 1 0 3 0;
#X connect 2 0 7 0;
#X connect 3 0 4 0;
#X connect 4 0 2 0;
#X connect 5 0 6 0;
#X connect 6 0 2 0;
#X connect 7 0 8 0;
#X connect 9 0 2 0;
#X restore 648 394 pd crash.wav;
#N canvas 469 366 450 300 snare.wav 0;
#X obj 186 69 inlet;
#X obj 194 109 tgl 15 0 empty empty empty 17 7 0 10 -262144 -1 -1 0
1;
#X obj 258 194 readsf~;
#X obj 190 160 bng 15 250 50 0 empty empty empty 17 7 0 10 -262144
-1 -1;
#X msg 327 169 start;
#X obj 372 106 inlet;
#X msg 384 197 stop;
#X obj 272 233 *~ 0.5;
#X obj 245 305 outlet~;
#X msg 257 134 open sound_samples/snare.wav;
#X connect 0 0 1 0;
#X connect 1 0 9 0;
#X connect 1 0 3 0;
#X connect 2 0 7 0;
#X connect 3 0 4 0;
#X connect 4 0 2 0;
#X connect 5 0 6 0;
#X connect 6 0 2 0;
#X connect 7 0 8 0;
#X connect 9 0 2 0;
#X restore 540 588 pd snare.wav;
#N canvas 469 366 450 300 808a.wav 1;
#X obj 186 69 inlet;
#X obj 194 109 tgl 15 0 empty empty empty 17 7 0 10 -262144 -1 -1 0
1;
#X obj 258 194 readsf~;
#X obj 190 160 bng 15 250 50 0 empty empty empty 17 7 0 10 -262144
-1 -1;
#X msg 327 169 start;
#X obj 372 106 inlet;
#X msg 384 197 stop;
#X obj 272 233 *~ 0.5;
#X obj 245 305 outlet~;
#X msg 257 134 open sound_samples/808a.wav;
#X connect 0 0 1 0;
#X connect 1 0 9 0;
#X connect 1 0 3 0;
#X connect 2 0 7 0;
#X connect 3 0 4 0;
#X connect 4 0 2 0;
#X connect 5 0 6 0;
#X connect 6 0 2 0;
#X connect 7 0 8 0;
#X connect 9 0 2 0;
#X restore 631 588 pd 808a.wav;
#X obj 861 497 send~ pad_audio;
#X obj 864 143 receive stop;
#X obj 856 239 bng 15 250 50 0 empty empty empty 17 7 0 10 -262144
-1 -1;
#X connect 10 0 11 0;
#X connect 11 0 15 0;
#X connect 12 1 14 0;
#X connect 12 1 3 0;
#X connect 13 0 14 1;
#X connect 14 0 64 0;
#X connect 15 0 12 0;
#X connect 16 0 17 0;
#X connect 17 0 52 0;
#X connect 18 1 61 0;
#X connect 18 1 9 0;
#X connect 19 0 61 1;
#X connect 20 0 21 0;
#X connect 21 0 48 0;
#X connect 22 1 56 0;
#X connect 22 1 1 0;
#X connect 23 0 56 1;
#X connect 24 0 25 0;
#X connect 25 0 53 0;
#X connect 26 1 60 0;
#X connect 26 1 6 0;
#X connect 27 0 60 1;
#X connect 28 0 29 0;
#X connect 29 0 49 0;
#X connect 30 1 8 0;
#X connect 30 1 57 0;
#X connect 31 0 57 1;
#X connect 32 0 33 0;
#X connect 33 0 54 0;
#X connect 34 1 62 0;
#X connect 34 1 2 0;
#X connect 35 0 62 1;
#X connect 36 0 37 0;
#X connect 37 0 50 0;
#X connect 38 1 58 0;
#X connect 38 1 4 0;
#X connect 39 0 58 1;
#X connect 40 0 41 0;
#X connect 41 0 55 0;
#X connect 42 1 63 0;
#X connect 42 1 7 0;
#X connect 43 0 63 1;
#X connect 44 0 45 0;
#X connect 45 0 51 0;
#X connect 46 1 59 0;
#X connect 46 1 5 0;
#X connect 47 0 59 1;
#X connect 48 0 22 0;
#X connect 49 0 30 0;
#X connect 50 0 38 0;
#X connect 51 0 46 0;
#X connect 52 0 18 0;
#X connect 53 0 26 0;
#X connect 54 0 34 0;
#X connect 55 0 42 0;
#X connect 56 0 64 0;
#X connect 57 0 64 0;
#X connect 58 0 64 0;
#X connect 59 0 64 0;
#X connect 60 0 64 0;
#X connect 61 0 64 0;
#X connect 62 0 64 0;
#X connect 63 0 64 0;
#X connect 65 0 66 0;
#X connect 66 0 57 1;
#X connect 66 0 56 1;
#X connect 66 0 14 1;
#X connect 66 0 58 1;
#X connect 66 0 59 1;
#X connect 66 0 61 1;
#X connect 66 0 60 1;
#X connect 66 0 62 1;
#X connect 66 0 63 1;
#X coords 0 -1 1 1 120 120 2 100 100;
