#N canvas 0 23 440 300 12;
#X obj 101 101 cnv 15 70 180 empty empty empty 20 12 0 14 -233017 -66577
0;
#X obj 106 362 *~;
#X obj 107 398 *~;
#X obj 263 419 outlet~;
#X obj 193 400 *~ 0.5;
#X obj 125 131 vsl 20 128 0 5 0 0 empty empty PAD_VOLUME -19 -8 0 10
-203904 -1 -1 10400 1;
#X obj -8 310 receive~ pad_audio;
#X connect 1 0 4 0;
#X connect 2 0 4 0;
#X connect 4 0 3 0;
#X connect 5 0 1 1;
#X connect 5 0 2 1;
#X connect 6 0 1 0;
#X connect 6 0 2 0;
#X coords 0 -1 1 1 70 180 2 100 100;
