#N canvas 0 23 1440 855 12;
#X obj 102 101 cnv 15 600 120 empty empty empty 20 12 0 14 -228856
-66577 0;
#X obj 67 308 key;
#X floatatom 67 345 5 0 0 0 - - -;
#X obj 67 419 select 0 1;
#X obj 134 268 key;
#X floatatom 134 296 5 0 0 0 - - -;
#X obj 133 353 select 0 1;
#N canvas 594 438 450 300 piano_lo_C+.wav 0;
#X obj 186 69 inlet;
#X obj 194 109 tgl 15 0 empty empty empty 17 7 0 10 -262144 -1 -1 0
1;
#X obj 258 194 readsf~;
#X obj 190 160 bng 15 250 50 0 empty empty empty 17 7 0 10 -262144
-1 -1;
#X msg 327 169 start;
#X obj 372 106 inlet;
#X msg 384 197 stop;
#X obj 272 233 *~ 0.5;
#X obj 245 305 outlet~;
#X msg 257 134 open sound_samples/piano_lo_C+.wav;
#X connect 0 0 1 0;
#X connect 1 0 9 0;
#X connect 1 0 3 0;
#X connect 2 0 7 0;
#X connect 3 0 4 0;
#X connect 4 0 2 0;
#X connect 5 0 6 0;
#X connect 6 0 2 0;
#X connect 7 0 8 0;
#X connect 9 0 2 0;
#X restore 152 380 pd piano_lo_C+.wav;
#X obj 134 324 == 119;
#X obj 149 416 receive stop;
#X obj 227 350 receive stop;
#X obj 125 166 bng 30 250 50 0 empty empty empty 6 15 0 25 -262144
-1 -1;
#X obj 147 130 bng 30 250 50 0 empty empty empty 4 15 0 20 -262144
-1 -1;
#X obj 142 491 key;
#X floatatom 142 528 5 0 0 0 - - -;
#X obj 142 602 select 0 1;
#X obj 209 451 key;
#X floatatom 209 479 5 0 0 0 - - -;
#X obj 208 536 select 0 1;
#X obj 224 599 receive stop;
#X obj 302 533 receive stop;
#X obj 168 166 bng 30 250 50 0 empty empty empty 6 15 0 25 -262144
-1 -1;
#X obj 187 130 bng 30 250 50 0 empty empty empty 4 15 0 20 -262144
-1 -1;
#N canvas 469 366 450 300 piano_lo_D.wav 0;
#X obj 186 69 inlet;
#X obj 194 109 tgl 15 0 empty empty empty 17 7 0 10 -262144 -1 -1 0
1;
#X obj 258 194 readsf~;
#X obj 190 160 bng 15 250 50 0 empty empty empty 17 7 0 10 -262144
-1 -1;
#X msg 327 169 start;
#X obj 372 106 inlet;
#X msg 384 197 stop;
#X obj 272 233 *~ 0.5;
#X obj 271 271 outlet~;
#X msg 257 134 open sound_samples/piano_lo_D.wav;
#X connect 0 0 1 0;
#X connect 1 0 9 0;
#X connect 1 0 3 0;
#X connect 2 0 7 0;
#X connect 3 0 4 0;
#X connect 4 0 2 0;
#X connect 5 0 6 0;
#X connect 6 0 2 0;
#X connect 7 0 8 0;
#X connect 9 0 2 0;
#X restore 136 630 pd piano_lo_D.wav;
#N canvas 594 438 450 300 piano_lo_D+.wav 0;
#X obj 186 69 inlet;
#X obj 194 109 tgl 15 0 empty empty empty 17 7 0 10 -262144 -1 -1 0
1;
#X obj 258 194 readsf~;
#X obj 190 160 bng 15 250 50 0 empty empty empty 17 7 0 10 -262144
-1 -1;
#X msg 327 169 start;
#X obj 372 106 inlet;
#X msg 384 197 stop;
#X obj 272 233 *~ 0.5;
#X obj 245 305 outlet~;
#X msg 257 134 open sound_samples/piano_lo_D+.wav;
#X connect 0 0 1 0;
#X connect 1 0 9 0;
#X connect 1 0 3 0;
#X connect 2 0 7 0;
#X connect 3 0 4 0;
#X connect 4 0 2 0;
#X connect 5 0 6 0;
#X connect 6 0 2 0;
#X connect 7 0 8 0;
#X connect 9 0 2 0;
#X restore 227 563 pd piano_lo_D+.wav;
#X obj 344 300 key;
#X floatatom 344 337 5 0 0 0 - - -;
#X obj 344 411 select 0 1;
#X obj 411 260 key;
#X floatatom 411 288 5 0 0 0 - - -;
#X obj 410 345 select 0 1;
#X obj 426 408 receive stop;
#X obj 504 342 receive stop;
#X obj 209 165 bng 30 250 50 0 empty empty empty 6 15 0 25 -262144
-1 -1;
#X obj 250 166 bng 30 250 50 0 empty empty empty 4 15 0 20 -262144
-1 -1;
#X obj 419 483 key;
#X floatatom 419 520 5 0 0 0 - - -;
#X obj 419 594 select 0 1;
#X obj 486 443 key;
#X floatatom 486 471 5 0 0 0 - - -;
#X obj 485 528 select 0 1;
#X obj 501 591 receive stop;
#X obj 579 525 receive stop;
#X obj 271 130 bng 30 250 50 0 empty empty empty 6 15 0 25 -262144
-1 -1;
#X obj 290 165 bng 30 250 50 0 empty empty empty 4 15 0 20 -262144
-1 -1;
#X obj 621 308 key;
#X floatatom 621 345 5 0 0 0 - - -;
#X obj 621 419 select 0 1;
#X obj 688 268 key;
#X floatatom 688 296 5 0 0 0 - - -;
#X obj 687 353 select 0 1;
#X obj 703 416 receive stop;
#X obj 781 350 receive stop;
#X obj 331 165 bng 30 250 50 0 empty empty empty 6 15 0 25 -262144
-1 -1;
#X obj 312 130 bng 30 250 50 0 empty empty empty 4 15 0 20 -262144
-1 -1;
#X obj 696 491 key;
#X floatatom 696 528 5 0 0 0 - - -;
#X obj 696 602 select 0 1;
#X obj 763 451 key;
#X floatatom 763 479 5 0 0 0 - - -;
#X obj 762 536 select 0 1;
#X obj 778 599 receive stop;
#X obj 856 533 receive stop;
#X obj 370 164 bng 30 250 50 0 empty empty empty 6 15 0 25 -262144
-1 -1;
#X obj 350 129 bng 30 250 50 0 empty empty empty 4 15 0 20 -262144
-1 -1;
#X obj 886 312 key;
#X floatatom 886 349 5 0 0 0 - - -;
#X obj 886 423 select 0 1;
#X obj 953 272 key;
#X floatatom 953 300 5 0 0 0 - - -;
#X obj 952 357 select 0 1;
#X obj 968 420 receive stop;
#X obj 1046 354 receive stop;
#X obj 410 164 bng 30 250 50 0 empty empty empty 6 15 0 25 -262144
-1 -1;
#X obj 425 129 bng 30 250 50 0 empty empty empty 4 15 0 20 -262144
-1 -1;
#X obj 961 495 key;
#X floatatom 961 532 5 0 0 0 - - -;
#X obj 961 606 select 0 1;
#X obj 1028 455 key;
#X floatatom 1028 483 5 0 0 0 - - -;
#X obj 1027 540 select 0 1;
#X obj 1043 603 receive stop;
#X obj 1121 537 receive stop;
#X obj 449 164 bng 30 250 50 0 empty empty empty 6 15 0 25 -262144
-1 -1;
#X obj 467 129 bng 30 250 50 0 empty empty empty 4 15 0 20 -262144
-1 -1;
#X obj 1163 304 key;
#X floatatom 1163 341 5 0 0 0 - - -;
#X obj 1163 415 select 0 1;
#X obj 1230 264 key;
#X floatatom 1230 292 5 0 0 0 - - -;
#X obj 1229 349 select 0 1;
#X obj 1245 412 receive stop;
#X obj 1323 346 receive stop;
#X obj 486 164 bng 30 250 50 0 empty empty empty 6 15 0 25 -262144
-1 -1;
#X obj 526 164 bng 30 250 50 0 empty empty empty 4 15 0 20 -262144
-1 -1;
#X obj 1238 487 key;
#X floatatom 1238 524 5 0 0 0 - - -;
#X obj 1238 598 select 0 1;
#X obj 1305 447 key;
#X floatatom 1305 475 5 0 0 0 - - -;
#X obj 1304 532 select 0 1;
#X obj 1320 595 receive stop;
#X obj 1398 529 receive stop;
#X obj 542 129 bng 30 250 50 0 empty empty empty 6 15 0 25 -262144
-1 -1;
#X obj 566 163 bng 30 250 50 0 empty empty empty 4 15 0 20 -262144
-1 -1;
#X obj 605 163 bng 30 250 50 0 empty empty empty 6 15 0 25 -262144
-1 -1;
#X obj 583 129 bng 30 250 50 0 empty empty empty 4 15 0 20 -262144
-1 -1;
#X obj 644 163 bng 30 250 50 0 empty empty empty 6 15 0 25 -262144
-1 -1;
#X obj 622 129 bng 30 250 50 0 empty empty empty 4 15 0 20 -262144
-1 -1;
#X obj 142 564 == 115;
#X obj 67 381 == 97;
#X obj 209 507 == 101;
#X obj 344 373 == 100;
#X obj 411 316 == 102;
#X obj 419 556 == 116;
#X obj 486 499 == 103;
#X obj 688 324 == 121;
#X obj 621 381 == 104;
#X obj 763 507 == 117;
#X obj 696 564 == 106;
#X obj 887 385 == 107;
#X obj 953 328 == 111;
#X obj 961 568 == 108;
#X obj 1028 511 == 112;
#X obj 1163 377 == 59;
#X obj 1230 320 == 39;
#X obj 1238 560 == 93;
#N canvas 469 366 450 300 piano_lo_E.wav 0;
#X obj 186 69 inlet;
#X obj 194 109 tgl 15 0 empty empty empty 17 7 0 10 -262144 -1 -1 1
1;
#X obj 258 194 readsf~;
#X obj 190 160 bng 15 250 50 0 empty empty empty 17 7 0 10 -262144
-1 -1;
#X msg 327 169 start;
#X obj 372 106 inlet;
#X msg 384 197 stop;
#X obj 272 233 *~ 0.5;
#X obj 245 305 outlet~;
#X msg 257 134 open sound_samples/piano_lo_E.wav;
#X connect 0 0 1 0;
#X connect 1 0 9 0;
#X connect 1 0 3 0;
#X connect 2 0 7 0;
#X connect 3 0 4 0;
#X connect 4 0 2 0;
#X connect 5 0 6 0;
#X connect 6 0 2 0;
#X connect 7 0 8 0;
#X connect 9 0 2 0;
#X restore 338 439 pd piano_lo_E.wav;
#N canvas 594 438 450 300 piano_lo_F.wav 0;
#X obj 186 69 inlet;
#X obj 194 109 tgl 15 0 empty empty empty 17 7 0 10 -262144 -1 -1 0
1;
#X obj 258 194 readsf~;
#X obj 190 160 bng 15 250 50 0 empty empty empty 17 7 0 10 -262144
-1 -1;
#X msg 327 169 start;
#X obj 372 106 inlet;
#X msg 384 197 stop;
#X obj 272 233 *~ 0.5;
#X obj 245 305 outlet~;
#X msg 257 134 open sound_samples/piano_lo_F.wav;
#X connect 0 0 1 0;
#X connect 1 0 9 0;
#X connect 1 0 3 0;
#X connect 2 0 7 0;
#X connect 3 0 4 0;
#X connect 4 0 2 0;
#X connect 5 0 6 0;
#X connect 6 0 2 0;
#X connect 7 0 8 0;
#X connect 9 0 2 0;
#X restore 429 373 pd piano_lo_F.wav;
#N canvas 472 477 450 300 piano_lo_F+.wav 0;
#X obj 186 69 inlet;
#X obj 194 109 tgl 15 0 empty empty empty 17 7 0 10 -262144 -1 -1 1
1;
#X obj 258 194 readsf~;
#X obj 190 160 bng 15 250 50 0 empty empty empty 17 7 0 10 -262144
-1 -1;
#X msg 327 169 start;
#X obj 372 106 inlet;
#X msg 384 197 stop;
#X obj 272 233 *~ 0.5;
#X obj 245 305 outlet~;
#X msg 257 134 open sound_samples/piano_lo_F+.wav;
#X connect 0 0 1 0;
#X connect 1 0 9 0;
#X connect 1 0 3 0;
#X connect 2 0 7 0;
#X connect 3 0 4 0;
#X connect 4 0 2 0;
#X connect 5 0 6 0;
#X connect 6 0 2 0;
#X connect 7 0 8 0;
#X connect 9 0 2 0;
#X restore 413 622 pd piano_lo_F+.wav;
#X obj 1305 503 == 10;
#N canvas 594 438 450 300 piano_lo_G.wav 0;
#X obj 186 69 inlet;
#X obj 194 109 tgl 15 0 empty empty empty 17 7 0 10 -262144 -1 -1 0
1;
#X obj 258 194 readsf~;
#X obj 190 160 bng 15 250 50 0 empty empty empty 17 7 0 10 -262144
-1 -1;
#X msg 327 169 start;
#X obj 372 106 inlet;
#X msg 384 197 stop;
#X obj 272 233 *~ 0.5;
#X obj 245 305 outlet~;
#X msg 257 134 open sound_samples/piano_lo_G.wav;
#X connect 0 0 1 0;
#X connect 1 0 9 0;
#X connect 1 0 3 0;
#X connect 2 0 7 0;
#X connect 3 0 4 0;
#X connect 4 0 2 0;
#X connect 5 0 6 0;
#X connect 6 0 2 0;
#X connect 7 0 8 0;
#X connect 9 0 2 0;
#X restore 504 555 pd piano_lo_G.wav;
#N canvas 594 438 450 300 piano_lo_G+.wav 0;
#X obj 186 69 inlet;
#X obj 194 109 tgl 15 0 empty empty empty 17 7 0 10 -262144 -1 -1 0
1;
#X obj 258 194 readsf~;
#X obj 190 160 bng 15 250 50 0 empty empty empty 17 7 0 10 -262144
-1 -1;
#X msg 327 169 start;
#X obj 372 106 inlet;
#X msg 384 197 stop;
#X obj 272 233 *~ 0.5;
#X obj 245 305 outlet~;
#X msg 257 134 open sound_samples/piano_lo_G+.wav;
#X connect 0 0 1 0;
#X connect 1 0 9 0;
#X connect 1 0 3 0;
#X connect 2 0 7 0;
#X connect 3 0 4 0;
#X connect 4 0 2 0;
#X connect 5 0 6 0;
#X connect 6 0 2 0;
#X connect 7 0 8 0;
#X connect 9 0 2 0;
#X restore 706 380 pd piano_lo_G+.wav;
#N canvas 733 364 450 300 piano_lo_A.wav 0;
#X obj 186 69 inlet;
#X obj 194 109 tgl 15 0 empty empty empty 17 7 0 10 -262144 -1 -1 0
1;
#X obj 258 194 readsf~;
#X obj 190 160 bng 15 250 50 0 empty empty empty 17 7 0 10 -262144
-1 -1;
#X msg 327 169 start;
#X obj 372 106 inlet;
#X msg 384 197 stop;
#X obj 272 233 *~ 0.5;
#X obj 245 305 outlet~;
#X msg 257 134 open sound_samples/piano_lo_A.wav;
#X connect 0 0 1 0;
#X connect 1 0 9 0;
#X connect 1 0 3 0;
#X connect 2 0 7 0;
#X connect 3 0 4 0;
#X connect 4 0 2 0;
#X connect 5 0 6 0;
#X connect 6 0 2 0;
#X connect 7 0 8 0;
#X connect 9 0 2 0;
#X restore 615 447 pd piano_lo_A.wav;
#N canvas 594 438 450 300 piano_lo_A+.wav 0;
#X obj 186 69 inlet;
#X obj 194 109 tgl 15 0 empty empty empty 17 7 0 10 -262144 -1 -1 0
1;
#X obj 258 194 readsf~;
#X obj 190 160 bng 15 250 50 0 empty empty empty 17 7 0 10 -262144
-1 -1;
#X msg 327 169 start;
#X obj 372 106 inlet;
#X msg 384 197 stop;
#X obj 272 233 *~ 0.5;
#X obj 245 305 outlet~;
#X msg 257 134 open sound_samples/piano_lo_A+.wav;
#X connect 0 0 1 0;
#X connect 1 0 9 0;
#X connect 1 0 3 0;
#X connect 2 0 7 0;
#X connect 3 0 4 0;
#X connect 4 0 2 0;
#X connect 5 0 6 0;
#X connect 6 0 2 0;
#X connect 7 0 8 0;
#X connect 9 0 2 0;
#X restore 781 563 pd piano_lo_A+.wav;
#N canvas 469 366 450 300 piano_lo_B.wav 0;
#X obj 186 69 inlet;
#X obj 194 109 tgl 15 0 empty empty empty 17 7 0 10 -262144 -1 -1 1
1;
#X obj 258 194 readsf~;
#X obj 190 160 bng 15 250 50 0 empty empty empty 17 7 0 10 -262144
-1 -1;
#X msg 327 169 start;
#X obj 372 106 inlet;
#X msg 384 197 stop;
#X obj 272 233 *~ 0.5;
#X obj 245 305 outlet~;
#X msg 257 134 open sound_samples/piano_lo_B.wav;
#X connect 0 0 1 0;
#X connect 1 0 9 0;
#X connect 1 0 3 0;
#X connect 2 0 7 0;
#X connect 3 0 4 0;
#X connect 4 0 2 0;
#X connect 5 0 6 0;
#X connect 6 0 2 0;
#X connect 7 0 8 0;
#X connect 9 0 2 0;
#X restore 690 630 pd piano_lo_B.wav;
#N canvas 267 366 450 300 piano_mi_C.wav 0;
#X obj 186 69 inlet;
#X obj 194 109 tgl 15 0 empty empty empty 17 7 0 10 -262144 -1 -1 0
1;
#X obj 258 194 readsf~;
#X obj 190 160 bng 15 250 50 0 empty empty empty 17 7 0 10 -262144
-1 -1;
#X msg 327 169 start;
#X obj 372 106 inlet;
#X msg 384 197 stop;
#X obj 272 233 *~ 0.5;
#X obj 245 305 outlet~;
#X msg 257 134 open sound_samples/piano_mi_C.wav;
#X connect 0 0 1 0;
#X connect 1 0 9 0;
#X connect 1 0 3 0;
#X connect 2 0 7 0;
#X connect 3 0 4 0;
#X connect 4 0 2 0;
#X connect 5 0 6 0;
#X connect 6 0 2 0;
#X connect 7 0 8 0;
#X connect 9 0 2 0;
#X restore 880 451 pd piano_mi_C.wav;
#N canvas 573 575 450 300 piano_mi_C+.wav 0;
#X obj 186 69 inlet;
#X obj 194 109 tgl 15 0 empty empty empty 17 7 0 10 -262144 -1 -1 1
1;
#X obj 258 194 readsf~;
#X obj 190 160 bng 15 250 50 0 empty empty empty 17 7 0 10 -262144
-1 -1;
#X msg 327 169 start;
#X obj 372 106 inlet;
#X msg 384 197 stop;
#X obj 272 233 *~ 0.5;
#X obj 245 305 outlet~;
#X msg 257 134 open sound_samples/piano_mi_C+.wav;
#X connect 0 0 1 0;
#X connect 1 0 9 0;
#X connect 1 0 3 0;
#X connect 2 0 7 0;
#X connect 3 0 4 0;
#X connect 4 0 2 0;
#X connect 5 0 6 0;
#X connect 6 0 2 0;
#X connect 7 0 8 0;
#X connect 9 0 2 0;
#X restore 971 384 pd piano_mi_C+.wav;
#N canvas 469 366 450 300 piano_mi_D.wav 0;
#X obj 186 69 inlet;
#X obj 194 109 tgl 15 0 empty empty empty 17 7 0 10 -262144 -1 -1 1
1;
#X obj 258 194 readsf~;
#X obj 190 160 bng 15 250 50 0 empty empty empty 17 7 0 10 -262144
-1 -1;
#X msg 327 169 start;
#X obj 372 106 inlet;
#X msg 384 197 stop;
#X obj 272 233 *~ 0.5;
#X obj 245 305 outlet~;
#X msg 257 134 open sound_samples/piano_mi_D.wav;
#X connect 0 0 1 0;
#X connect 1 0 9 0;
#X connect 1 0 3 0;
#X connect 2 0 7 0;
#X connect 3 0 4 0;
#X connect 4 0 2 0;
#X connect 5 0 6 0;
#X connect 6 0 2 0;
#X connect 7 0 8 0;
#X connect 9 0 2 0;
#X restore 955 634 pd piano_mi_D.wav;
#N canvas 448 441 450 300 piano_mi_D+.wav 0;
#X obj 186 69 inlet;
#X obj 194 109 tgl 15 0 empty empty empty 17 7 0 10 -262144 -1 -1 1
1;
#X obj 258 194 readsf~;
#X obj 190 160 bng 15 250 50 0 empty empty empty 17 7 0 10 -262144
-1 -1;
#X msg 327 169 start;
#X obj 372 106 inlet;
#X msg 384 197 stop;
#X obj 272 233 *~ 0.5;
#X obj 245 305 outlet~;
#X msg 257 134 open sound_samples/piano_mi_D+.wav;
#X connect 0 0 1 0;
#X connect 1 0 9 0;
#X connect 1 0 3 0;
#X connect 2 0 7 0;
#X connect 3 0 4 0;
#X connect 4 0 2 0;
#X connect 5 0 6 0;
#X connect 6 0 2 0;
#X connect 7 0 8 0;
#X connect 9 0 2 0;
#X restore 1048 567 pd piano_mi_D+.wav;
#N canvas 469 366 450 300 piano_mi_E.wav 0;
#X obj 186 69 inlet;
#X obj 194 109 tgl 15 0 empty empty empty 17 7 0 10 -262144 -1 -1 0
1;
#X obj 258 194 readsf~;
#X obj 190 160 bng 15 250 50 0 empty empty empty 17 7 0 10 -262144
-1 -1;
#X msg 327 169 start;
#X obj 372 106 inlet;
#X msg 384 197 stop;
#X obj 272 233 *~ 0.5;
#X obj 245 305 outlet~;
#X msg 257 134 open sound_samples/piano_mi_E.wav;
#X connect 0 0 1 0;
#X connect 1 0 9 0;
#X connect 1 0 3 0;
#X connect 2 0 7 0;
#X connect 3 0 4 0;
#X connect 4 0 2 0;
#X connect 5 0 6 0;
#X connect 6 0 2 0;
#X connect 7 0 8 0;
#X connect 9 0 2 0;
#X restore 1119 435 pd piano_mi_E.wav;
#N canvas 594 438 450 300 piano_mi_F.wav 0;
#X obj 186 69 inlet;
#X obj 194 109 tgl 15 0 empty empty empty 17 7 0 10 -262144 -1 -1 0
1;
#X obj 258 194 readsf~;
#X obj 190 160 bng 15 250 50 0 empty empty empty 17 7 0 10 -262144
-1 -1;
#X msg 327 169 start;
#X obj 372 106 inlet;
#X msg 384 197 stop;
#X obj 272 233 *~ 0.5;
#X obj 245 305 outlet~;
#X msg 257 134 open sound_samples/piano_mi_F.wav;
#X connect 0 0 1 0;
#X connect 1 0 9 0;
#X connect 1 0 3 0;
#X connect 2 0 7 0;
#X connect 3 0 4 0;
#X connect 4 0 2 0;
#X connect 5 0 6 0;
#X connect 6 0 2 0;
#X connect 7 0 8 0;
#X connect 9 0 2 0;
#X restore 1248 376 pd piano_mi_F.wav;
#N canvas 469 366 450 300 piano_mi_F+.wav 0;
#X obj 186 69 inlet;
#X obj 194 109 tgl 15 0 empty empty empty 17 7 0 10 -262144 -1 -1 0
1;
#X obj 258 194 readsf~;
#X obj 190 160 bng 15 250 50 0 empty empty empty 17 7 0 10 -262144
-1 -1;
#X msg 327 169 start;
#X obj 372 106 inlet;
#X msg 384 197 stop;
#X obj 272 233 *~ 0.5;
#X obj 245 305 outlet~;
#X msg 257 134 open sound_samples/piano_mi_F+.wav;
#X connect 0 0 1 0;
#X connect 1 0 9 0;
#X connect 1 0 3 0;
#X connect 2 0 7 0;
#X connect 3 0 4 0;
#X connect 4 0 2 0;
#X connect 5 0 6 0;
#X connect 6 0 2 0;
#X connect 7 0 8 0;
#X connect 9 0 2 0;
#X restore 1232 626 pd piano_mi_F+.wav;
#N canvas 594 438 450 300 piano_mi_G.wav 0;
#X obj 186 69 inlet;
#X obj 194 109 tgl 15 0 empty empty empty 17 7 0 10 -262144 -1 -1 0
1;
#X obj 258 194 readsf~;
#X obj 190 160 bng 15 250 50 0 empty empty empty 17 7 0 10 -262144
-1 -1;
#X msg 327 169 start;
#X obj 372 106 inlet;
#X msg 384 197 stop;
#X obj 272 233 *~ 0.5;
#X obj 245 305 outlet~;
#X msg 257 134 open sound_samples/piano_mi_G.wav;
#X connect 0 0 1 0;
#X connect 1 0 9 0;
#X connect 1 0 3 0;
#X connect 2 0 7 0;
#X connect 3 0 4 0;
#X connect 4 0 2 0;
#X connect 5 0 6 0;
#X connect 6 0 2 0;
#X connect 7 0 8 0;
#X connect 9 0 2 0;
#X restore 1323 559 pd piano_mi_G.wav;
#X obj 1031 717 send~ piano_audio;
#N canvas 469 366 606 300 piano_lo_C.wav 0;
#X obj 67 28 inlet;
#X obj 75 68 tgl 15 0 empty empty empty 17 7 0 10 -262144 -1 -1 1 1
;
#X obj 139 153 readsf~;
#X obj 71 119 bng 15 250 50 0 empty empty empty 17 7 0 10 -262144 -1
-1;
#X msg 208 128 start;
#X obj 253 65 inlet;
#X msg 265 156 stop;
#X obj 153 192 *~ 0.5;
#X obj 126 264 outlet~;
#X msg 138 93 open sound_samples/piano_lo_C.wav;
#X connect 0 0 1 0;
#X connect 1 0 9 0;
#X connect 1 0 3 0;
#X connect 2 0 7 0;
#X connect 3 0 4 0;
#X connect 4 0 2 0;
#X connect 5 0 6 0;
#X connect 6 0 2 0;
#X connect 7 0 8 0;
#X connect 9 0 2 0;
#X restore 47 451 pd piano_lo_C.wav;
#X connect 1 0 2 0;
#X connect 2 0 110 0;
#X connect 3 1 11 0;
#X connect 3 1 145 0;
#X connect 4 0 5 0;
#X connect 5 0 8 0;
#X connect 6 1 7 0;
#X connect 6 1 12 0;
#X connect 7 0 144 0;
#X connect 8 0 6 0;
#X connect 9 0 145 1;
#X connect 10 0 7 1;
#X connect 13 0 14 0;
#X connect 14 0 109 0;
#X connect 15 1 23 0;
#X connect 15 1 21 0;
#X connect 16 0 17 0;
#X connect 17 0 111 0;
#X connect 18 1 24 0;
#X connect 18 1 22 0;
#X connect 19 0 23 1;
#X connect 20 0 24 1;
#X connect 23 0 144 0;
#X connect 24 0 144 0;
#X connect 25 0 26 0;
#X connect 26 0 112 0;
#X connect 27 1 127 0;
#X connect 27 1 33 0;
#X connect 28 0 29 0;
#X connect 29 0 113 0;
#X connect 30 1 128 0;
#X connect 30 1 34 0;
#X connect 31 0 127 1;
#X connect 32 0 128 1;
#X connect 35 0 36 0;
#X connect 36 0 114 0;
#X connect 37 1 129 0;
#X connect 37 1 43 0;
#X connect 38 0 39 0;
#X connect 39 0 115 0;
#X connect 40 1 131 0;
#X connect 40 1 44 0;
#X connect 41 0 129 1;
#X connect 42 0 131 1;
#X connect 45 0 46 0;
#X connect 46 0 117 0;
#X connect 47 1 133 0;
#X connect 47 1 53 0;
#X connect 48 0 49 0;
#X connect 49 0 116 0;
#X connect 50 1 132 0;
#X connect 50 1 54 0;
#X connect 51 0 133 1;
#X connect 52 0 132 1;
#X connect 55 0 56 0;
#X connect 56 0 119 0;
#X connect 57 1 135 0;
#X connect 57 1 63 0;
#X connect 58 0 59 0;
#X connect 59 0 118 0;
#X connect 60 1 134 0;
#X connect 60 1 64 0;
#X connect 61 0 135 1;
#X connect 62 0 134 1;
#X connect 65 0 66 0;
#X connect 66 0 120 0;
#X connect 67 1 136 0;
#X connect 67 1 73 0;
#X connect 68 0 69 0;
#X connect 69 0 121 0;
#X connect 70 1 137 0;
#X connect 70 1 74 0;
#X connect 71 0 136 1;
#X connect 72 0 137 1;
#X connect 75 0 76 0;
#X connect 76 0 122 0;
#X connect 77 1 138 0;
#X connect 77 1 83 0;
#X connect 78 0 79 0;
#X connect 79 0 123 0;
#X connect 80 1 139 0;
#X connect 81 0 138 1;
#X connect 82 0 139 1;
#X connect 85 0 86 0;
#X connect 86 0 124 0;
#X connect 87 1 140 0;
#X connect 87 1 93 0;
#X connect 88 0 89 0;
#X connect 89 0 125 0;
#X connect 90 1 141 0;
#X connect 90 1 94 0;
#X connect 91 0 140 1;
#X connect 92 0 141 1;
#X connect 95 0 96 0;
#X connect 96 0 126 0;
#X connect 97 1 142 0;
#X connect 97 1 103 0;
#X connect 98 0 99 0;
#X connect 99 0 130 0;
#X connect 100 1 143 0;
#X connect 100 1 104 0;
#X connect 101 0 142 1;
#X connect 102 0 143 1;
#X connect 109 0 15 0;
#X connect 110 0 3 0;
#X connect 111 0 18 0;
#X connect 112 0 27 0;
#X connect 113 0 30 0;
#X connect 114 0 37 0;
#X connect 115 0 40 0;
#X connect 116 0 50 0;
#X connect 117 0 47 0;
#X connect 118 0 60 0;
#X connect 119 0 57 0;
#X connect 120 0 67 0;
#X connect 121 0 70 0;
#X connect 122 0 77 0;
#X connect 123 0 80 0;
#X connect 124 0 87 0;
#X connect 125 0 90 0;
#X connect 126 0 97 0;
#X connect 127 0 144 0;
#X connect 128 0 144 0;
#X connect 129 0 144 0;
#X connect 130 0 100 0;
#X connect 131 0 144 0;
#X connect 132 0 144 0;
#X connect 133 0 144 0;
#X connect 134 0 144 0;
#X connect 135 0 144 0;
#X connect 136 0 144 0;
#X connect 137 0 144 0;
#X connect 138 0 144 0;
#X connect 139 0 144 0;
#X connect 140 0 144 0;
#X connect 141 0 144 0;
#X connect 142 0 144 0;
#X connect 143 0 144 0;
#X connect 145 0 144 0;
#X coords 0 -1 1 1 600 120 2 100 100;
