#N canvas 140 95 530 336 12;
#X msg 541 226 stop;
#X obj 247 277 writesf~ 2, f 11;
#N canvas 331 115 585 394 receiver 0;
#X obj 68 100 receive~ lp1_l;
#X obj 227 101 receive~ lp1_r;
#X obj 69 135 receive~ lp2_l;
#X obj 228 136 receive~ lp2_r;
#X obj 65 168 receive~ lp3_l;
#X obj 227 171 receive~ lp3_r;
#X obj 112 60 receive~ piano;
#X obj 272 56 receive~ left;
#X obj 358 84 receive~ right;
#X obj 151 264 outlet~;
#X obj 301 269 outlet~;
#X obj 67 216 receive~ lp4_l;
#X obj 229 215 receive~ lp4_r;
#X connect 0 0 9 0;
#X connect 1 0 10 0;
#X connect 2 0 9 0;
#X connect 3 0 10 0;
#X connect 4 0 9 0;
#X connect 5 0 10 0;
#X connect 6 0 9 0;
#X connect 6 0 10 0;
#X connect 7 0 9 0;
#X connect 7 0 10 0;
#X connect 8 0 9 0;
#X connect 8 0 10 0;
#X connect 11 0 9 0;
#X connect 12 0 10 0;
#X restore 246 238 pd receiver;
#X floatatom 374 69 5 0 0 0 - - -;
#X obj 337 102 * 1000;
#X floatatom 344 137 5 0 0 0 - - -;
#X obj 320 171 metro;
#X obj 105 104 cnv 15 120 60 empty empty empty 20 12 0 14 -33289 -66577
0;
#X obj 117 126 tgl 30 0 empty empty ON/OFF -2 -10 0 10 -203904 -1 -262144
0 1;
#X obj 180 137 bng 15 250 50 0 empty empty RECORDING -18 -10 0 10 -258113
-1 -262144;
#X obj 474 156 select 0 1;
#X text 41 75 RECORDS AND SAVES AUDIO AS recording.wav;
#X msg 382 260 open loop_layers/recording.wav \, start;
#X connect 0 0 1 0;
#X connect 2 0 1 0;
#X connect 2 1 1 1;
#X connect 3 0 4 0;
#X connect 4 0 5 0;
#X connect 5 0 6 1;
#X connect 6 0 9 0;
#X connect 8 0 3 0;
#X connect 8 0 6 0;
#X connect 8 0 10 0;
#X connect 10 0 0 0;
#X connect 10 1 12 0;
#X connect 12 0 1 0;
#X coords 0 -1 1 1 130 70 2 100 100;
